<svg width="185" height="188" xmlns="http://www.w3.org/2000/svg">
 <metadata id="metadata3407">image/svg+xml</metadata>
 <radialGradient gradientUnits="userSpaceOnUse" gradientTransform="matrix(.498 0 0 .498 150.953 101.325)" r="20.114" cy="-103.403" cx="-267.421" id="a">
  <stop id="stop3296" stop-color="#FFCF4F" offset="0"/>
  <stop id="stop3298" stop-color="#F4C236" offset="1"/>
 </radialGradient>
 <radialGradient gradientUnits="userSpaceOnUse" gradientTransform="matrix(.498 0 0 .498 150.953 101.325)" r="27.658" cy="-113.618" cx="-279.473" id="b">
  <stop id="stop3303" stop-color="#08A960" offset="0"/>
  <stop id="stop3305" stop-color="#07914B" offset="1"/>
 </radialGradient>
 <radialGradient gradientUnits="userSpaceOnUse" gradientTransform="matrix(.498 0 0 .498 150.953 101.325)" r="40.54" cy="-153.299" cx="-270.021" id="c">
  <stop id="stop3310" stop-color="#567FC0" offset="0"/>
  <stop id="stop3312" stop-color="#557FC0" offset="1"/>
 </radialGradient>
 <radialGradient gradientUnits="userSpaceOnUse" gradientTransform="matrix(.498 0 0 .498 150.953 101.325)" r="33.058" cy="-163.264" cx="-257.957" id="d">
  <stop id="stop3317" stop-color="#E14C40" offset="0"/>
  <stop id="stop3319" stop-color="#CD392D" offset="1"/>
 </radialGradient>
 <radialGradient gradientUnits="userSpaceOnUse" gradientTransform="matrix(.498 0 0 .498 150.953 101.325)" r="20.114" cy="23.107" cx="-267.421" id="e">
  <stop id="stop3336" stop-color="#ccc" offset="0"/>
  <stop id="stop3338" stop-color="#C0C0C0" offset="1"/>
 </radialGradient>
 <radialGradient gradientUnits="userSpaceOnUse" gradientTransform="matrix(.498 0 0 .498 150.953 101.325)" r="27.658" cy="12.893" cx="-279.473" id="f">
  <stop id="stop3343" stop-color="#A0A0A0" offset="0"/>
  <stop id="stop3345" stop-color="#7B7B7B" offset="1"/>
 </radialGradient>
 <radialGradient gradientUnits="userSpaceOnUse" gradientTransform="matrix(.498 0 0 .498 150.953 101.325)" r="40.54" cy="-26.789" cx="-270.021" id="g">
  <stop id="stop3350" stop-color="#848484" offset="0"/>
  <stop id="stop3352" stop-color="#838383" offset="1"/>
 </radialGradient>
 <radialGradient gradientUnits="userSpaceOnUse" gradientTransform="matrix(.498 0 0 .498 150.953 101.325)" r="33.058" cy="-36.754" cx="-257.957" id="h">
  <stop id="stop3357" stop-color="#626262" offset="0"/>
  <stop id="stop3359" stop-color="#474747" offset="1"/>
 </radialGradient>
 <radialGradient gradientUnits="userSpaceOnUse" gradientTransform="matrix(.498 0 0 .498 150.953 101.325)" r="20.114" cy="149.617" cx="-267.421" id="i">
  <stop id="stop3376" stop-color="#FFCF4F" offset="0"/>
  <stop id="stop3378" stop-color="#F4C236" offset="1"/>
 </radialGradient>
 <radialGradient gradientUnits="userSpaceOnUse" gradientTransform="matrix(.498 0 0 .498 150.953 101.325)" r="27.658" cy="139.403" cx="-279.473" id="j">
  <stop id="stop3383" stop-color="#08A960" offset="0"/>
  <stop id="stop3385" stop-color="#07914B" offset="1"/>
 </radialGradient>
 <radialGradient gradientUnits="userSpaceOnUse" gradientTransform="matrix(.498 0 0 .498 150.953 101.325)" r="40.54" cy="99.721" cx="-270.021" id="k">
  <stop id="stop3390" stop-color="#567FC0" offset="0"/>
  <stop id="stop3392" stop-color="#557FC0" offset="1"/>
 </radialGradient>
 <radialGradient gradientUnits="userSpaceOnUse" gradientTransform="matrix(.498 0 0 .498 150.953 101.325)" r="33.058" cy="89.756" cx="-257.957" id="l">
  <stop id="stop3397" stop-color="#E14C40" offset="0"/>
  <stop id="stop3399" stop-color="#CD392D" offset="1"/>
 </radialGradient>
 <g>
  <title>Layer 1</title>
  <g id="g3283" fill="#4E4E4E">
   <path id="path3285" d="m116.07,17.967001c0,2.677 -0.731003,4.738998 -2.194,6.185999c-1.460999,1.447001 -3.516998,2.172001 -6.165001,2.172001h-5.149002v-16.034h5.508003c2.554001,0 4.526001,0.657 5.916,1.974c1.388,1.316 2.084,3.217 2.084,5.702001zm-4.461998,0.153999c0,-1.469 -0.289001,-2.559 -0.866005,-3.268001c-0.576996,-0.709 -1.451996,-1.064 -2.627998,-1.064h-1.251999v8.983h0.958c1.306999,0 2.264999,-0.382999 2.875,-1.146c0.607002,-0.764999 0.913002,-1.932999 0.913002,-3.504999zm11.68,8.424c-2.054001,0 -3.647003,-0.549999 -4.785004,-1.651001c-1.135002,-1.099998 -1.702995,-2.667 -1.702995,-4.699999c0,-2.098 0.525993,-3.709 1.577995,-4.831s2.554001,-1.684 4.506004,-1.684c1.856995,0 3.292,0.488 4.305,1.465c1.012993,0.976001 1.517998,2.381 1.517998,4.217v1.907999h-7.607002c0.028999,0.695002 0.282005,1.240002 0.756004,1.634001c0.475998,0.396 1.121994,0.592001 1.943001,0.592001c0.746994,0 1.435997,-0.071001 2.063995,-0.213001c0.625999,-0.143 1.306999,-0.386 2.040001,-0.73v3.082001c-0.667,0.344 -1.357002,0.580999 -2.067001,0.712999c-0.712997,0.132 -1.560997,0.198 -2.547997,0.198zm-11.931,-18.372c-0.5,0 -0.918999,0.158999 -1.256004,0.476999c-0.338997,0.319 -0.535995,0.818001 -0.592995,1.497001h3.656998c-0.014999,-0.599 -0.182999,-1.078 -0.504997,-1.436c-0.325005,-0.359 -0.759003,-0.538 -1.303001,-0.538zm21.652,18.152l-4.701996,-12.426001h4.439987l2.091003,7.348l0.042007,0.187l0.065994,0.312l0.059998,0.385l0.027008,0.378h0.074997c0,-0.380001 0.065994,-0.793001 0.195999,-1.240002l2.188004,-7.369999h4.429993l-4.703003,12.426001h-4.209991l0,0zm-8.123001,-18.152h-4.233002v-16.034h9.404007v3.476h-5.171005v3.061h4.768005v3.476h-4.768005v6.021l0,0zm20.272003,18.372c-2.054001,0 -3.647003,-0.549999 -4.785004,-1.651001c-1.134995,-1.099998 -1.703003,-2.667 -1.703003,-4.699999c0,-2.098 0.526001,-3.709 1.578003,-4.831s2.554001,-1.684 4.505997,-1.684c1.856995,0 3.292007,0.488 4.305008,1.465c1.013,0.976001 1.51799,2.381 1.51799,4.217v1.907999h-7.608002c0.029007,0.695002 0.282013,1.240002 0.756012,1.634001c0.475998,0.396 1.121994,0.592001 1.942993,0.592001c0.746994,0 1.436005,-0.071001 2.063995,-0.213001c0.626007,-0.143 1.307007,-0.386 2.040009,-0.73v3.082001c-0.667007,0.344 -1.35701,0.580999 -2.067001,0.712999c-0.712997,0.132 -1.559998,0.198 -2.546997,0.198zm-34.052002,-28.32c-0.5,0 -0.919006,0.159 -1.256004,0.477c-0.338997,0.319 -0.535995,0.818 -0.592995,1.497h3.656998c-0.014999,-0.599 -0.182999,-1.078 -0.505005,-1.436c-0.324997,-0.359 -0.758995,-0.538 -1.302994,-0.538zm63.593002,24.282999c0,1.331001 -0.450012,2.336 -1.348999,3.016001c-0.901001,0.68 -2.192001,1.021 -3.876007,1.021c-0.914001,0 -1.707993,-0.049 -2.382004,-0.148001c-0.675995,-0.098999 -1.363998,-0.279999 -2.069,-0.542999v-3.433001c0.661011,0.293001 1.384003,0.534 2.172012,0.724001s1.488998,0.285 2.105988,0.285c0.923004,0 1.382004,-0.211 1.382004,-0.635c0,-0.219999 -0.128006,-0.416 -0.386002,-0.587c-0.255997,-0.172001 -1.007004,-0.506001 -2.246994,-1.004c-1.132004,-0.468 -1.923004,-1 -2.373001,-1.596001c-0.449997,-0.594999 -0.675995,-1.35 -0.675995,-2.264c0,-1.155001 0.442993,-2.055 1.328995,-2.698c0.884003,-0.644 2.136993,-0.966 3.753998,-0.966c0.813004,0 1.576996,0.09 2.292007,0.269c0.713989,0.179 1.455994,0.44 2.224991,0.783999l-1.153992,2.764c-0.56601,-0.254999 -1.165009,-0.473 -1.796005,-0.652c-0.630005,-0.178999 -1.145996,-0.268999 -1.544998,-0.268999c-0.695999,0 -1.044006,0.171999 -1.044006,0.514999c0,0.212 0.121002,0.393 0.363998,0.543001c0.242004,0.15 0.945007,0.455 2.106003,0.915998c0.862,0.359001 1.507004,0.710001 1.932007,1.053001c0.425003,0.344 0.735992,0.747999 0.935989,1.212s0.299011,1.028 0.299011,1.692999zm-56.527008,-23.634999c0.573006,0 1.258003,-0.143 2.056,-0.428v3.126c-0.572998,0.248 -1.118996,0.426 -1.639,0.532c-0.517998,0.106 -1.125999,0.159 -1.821999,0.159c-1.43,0 -2.460999,-0.353 -3.090996,-1.058c-0.632004,-0.706 -0.948006,-1.79 -0.948006,-3.252v-5.122h-1.489998v-1.743999l1.892998,-1.349l1.100006,-2.610001h2.784996v2.489h3.027v3.214h-3.027v4.837c0.000999,0.804 0.386002,1.206 1.155998,1.206z"/>
  </g>
  <g id="g3291" fill="#4E4E4E">
   <path id="path3293" d="m55.729,17.313h6.921001v8.643c-1.880001,0.644001 -3.945,0.966002 -6.197002,0.966002c-2.472,0 -4.382999,-0.717001 -5.730999,-2.151001c-1.348999,-1.433001 -2.023998,-3.476999 -2.023998,-6.131001c0,-2.588999 0.738998,-4.603 2.216,-6.044c1.477997,-1.44 3.546997,-2.160999 6.209,-2.160999c1.008999,0 1.960999,0.094999 2.856998,0.285c0.895,0.19 1.675999,0.432 2.341999,0.724l-1.370998,3.4c-1.154999,-0.57 -2.424,-0.855 -3.806,-0.855c-1.264999,0 -2.243,0.410999 -2.934002,1.233999c-0.690998,0.822001 -1.036999,1.998001 -1.036999,3.527c0,1.499001 0.313,2.641001 0.938,3.427999c0.625,0.786001 1.526001,1.179001 2.704002,1.179001c0.643997,0 1.235996,-0.062 1.776997,-0.187v-2.511999h-2.862999v-3.345001l-0.000999,0zm22.454998,1.031c0,2.677 -0.737,4.739 -2.209999,6.187c-1.473999,1.447001 -3.544998,2.171999 -6.214996,2.171999h-5.188004v-16.037999h5.551003c2.573997,0 4.560997,0.658 5.960999,1.975c1.401001,1.316999 2.100998,3.217999 2.100998,5.704zm-4.497002,0.153999c0,-1.469999 -0.290993,-2.559999 -0.871994,-3.268c-0.581001,-0.709999 -1.464005,-1.065 -2.649002,-1.065h-1.262001v8.984h0.965004c1.316994,0 2.280998,-0.382 2.895996,-1.146s0.921997,-1.933001 0.921997,-3.505001zm12.463005,-1.184999h6.920998v8.643c-1.879997,0.644001 -3.945,0.966002 -6.196999,0.966002c-2.472,0 -4.383003,-0.717001 -5.731003,-2.151001c-1.348999,-1.433001 -2.023994,-3.476999 -2.023994,-6.131001c0,-2.588999 0.738998,-4.603 2.215996,-6.044c1.478004,-1.44 3.547005,-2.160999 6.209,-2.160999c1.009003,0 1.960999,0.094999 2.857002,0.285c0.894997,0.19 1.676003,0.432 2.341995,0.724l-1.370995,3.4c-1.154999,-0.57 -2.424004,-0.855 -3.806,-0.855c-1.264999,0 -2.243004,0.410999 -2.933998,1.233999c-0.691002,0.822001 -1.037003,1.998001 -1.037003,3.527c0,1.499001 0.312996,2.641001 0.937996,3.427999c0.625,0.786001 1.526001,1.179001 2.704002,1.179001c0.643997,0 1.236,-0.062 1.777,-0.187v-2.511999h-2.863998v-3.345001l0,0z"/>
  </g>
  <path id="path3300" d="m9.068,61h6.791c1.606999,0 3.603999,-1.127998 4.432,-2.511002l5.719999,-9.518997c0.677,-1.396 0.653,-3.426003 -0.118999,-4.713001l-3.378,-5.591999l-13.446,22.334999z" fill="url(#a)"/>
  <path id="path3307" d="m16.368,33.514l-15.102,25.249001c-0.583,1.248001 0.023,2.237 1.521,2.237h6.281l13.446,-22.334999l-6.146,-10.173c0.829,1.378 0.829,3.638 0,5.021999" fill="url(#b)"/>
  <path id="path3314" d="m2.787,1c-1.613,0 -2.253,1.133 -1.424,2.511l24.529,40.745001c0.771999,1.287998 0.795,3.317001 0.118999,4.713001l5.963001,-9.925003l-22.902001,-38.043999h-6.285l0,0z" fill="url(#c)"/>
  <path id="path3321" d="m9.072,1l22.903001,38.044998l3.321001,-5.529999c0.829998,-1.384998 0.829998,-3.644999 0,-5.022999l-15.004002,-24.981001c-0.829,-1.378 -2.825001,-2.511 -4.432,-2.511h-6.788l0,0z" fill="url(#d)"/>
  <g id="g3323" fill="#4E4E4E">
   <path id="path3325" d="m116.07,80.967003c0,2.676994 -0.731003,4.738998 -2.194,6.185997c-1.460999,1.446999 -3.516998,2.171997 -6.165001,2.171997h-5.149002v-16.033997h5.508003c2.554001,0 4.526001,0.656998 5.916,1.973999c1.388,1.316002 2.084,3.217003 2.084,5.702003zm-4.461998,0.153999c0,-1.469002 -0.289001,-2.559006 -0.866005,-3.268005c-0.576996,-0.709 -1.451996,-1.063995 -2.627998,-1.063995h-1.251999v8.983002h0.958c1.306999,0 2.264999,-0.383003 2.875,-1.146004c0.607002,-0.764999 0.913002,-1.932999 0.913002,-3.504997zm11.68,8.423996c-2.054001,0 -3.647003,-0.549995 -4.785004,-1.651001c-1.135002,-1.099998 -1.702995,-2.667 -1.702995,-4.699997c0,-2.098 0.525993,-3.709 1.577995,-4.831001s2.554001,-1.683998 4.506004,-1.683998c1.856995,0 3.292,0.487999 4.305,1.464996c1.012993,0.976006 1.517998,2.381004 1.517998,4.217003v1.907997h-7.607002c0.028999,0.695 0.282005,1.240005 0.756004,1.634003c0.475998,0.396004 1.121994,0.592003 1.943001,0.592003c0.746994,0 1.435997,-0.070999 2.063995,-0.213005c0.625999,-0.142998 1.306999,-0.385994 2.040001,-0.729996v3.082001c-0.667,0.343994 -1.357002,0.580994 -2.067001,0.712997c-0.712997,0.131996 -1.560997,0.197998 -2.547997,0.197998zm-11.931,-18.372002c-0.5,0 -0.918999,0.159004 -1.256004,0.477005c-0.338997,0.319 -0.535995,0.818001 -0.592995,1.497002h3.656998c-0.014999,-0.599007 -0.182999,-1.078003 -0.504997,-1.436005c-0.325005,-0.359001 -0.759003,-0.538002 -1.303001,-0.538002zm21.652,18.152l-4.701996,-12.425995h4.439987l2.091003,7.348l0.042007,0.186996l0.065994,0.312004l0.059998,0.384995l0.027008,0.378006h0.074997c0,-0.380005 0.065994,-0.792999 0.195999,-1.240005l2.188004,-7.369995h4.429993l-4.703003,12.425995h-4.209991l0,0zm-8.123001,-18.152h-4.233002v-16.033997h9.404007v3.476002h-5.171005v3.060997h4.768005v3.476002h-4.768005v6.020996l0,0zm20.272003,18.372002c-2.054001,0 -3.647003,-0.549995 -4.785004,-1.651001c-1.134995,-1.099998 -1.703003,-2.667 -1.703003,-4.699997c0,-2.098 0.526001,-3.709 1.578003,-4.831001s2.554001,-1.683998 4.505997,-1.683998c1.856995,0 3.292007,0.487999 4.305008,1.464996c1.013,0.976006 1.51799,2.381004 1.51799,4.217003v1.907997h-7.608002c0.029007,0.695 0.282013,1.240005 0.756012,1.634003c0.475998,0.396004 1.121994,0.592003 1.942993,0.592003c0.746994,0 1.436005,-0.070999 2.063995,-0.213005c0.626007,-0.142998 1.307007,-0.385994 2.040009,-0.729996v3.082001c-0.667007,0.343994 -1.35701,0.580994 -2.067001,0.712997c-0.712997,0.131996 -1.559998,0.197998 -2.546997,0.197998zm-34.052002,-28.32c-0.5,0 -0.919006,0.159 -1.256004,0.477001c-0.338997,0.319 -0.535995,0.818001 -0.592995,1.497002h3.656998c-0.014999,-0.599003 -0.182999,-1.078003 -0.505005,-1.436001c-0.324997,-0.359001 -0.758995,-0.538002 -1.302994,-0.538002zm63.593002,24.283005c0,1.330994 -0.450012,2.335999 -1.348999,3.015999c-0.901001,0.68 -2.192001,1.020996 -3.876007,1.020996c-0.914001,0 -1.707993,-0.048996 -2.382004,-0.147995c-0.675995,-0.099007 -1.363998,-0.280006 -2.069,-0.543007v-3.432999c0.661011,0.292999 1.384003,0.534004 2.172012,0.723999s1.488998,0.285004 2.105988,0.285004c0.923004,0 1.382004,-0.210999 1.382004,-0.635002c0,-0.220001 -0.128006,-0.416 -0.386002,-0.586998c-0.255997,-0.171997 -1.007004,-0.505997 -2.246994,-1.003998c-1.132004,-0.468002 -1.923004,-1 -2.373001,-1.596001c-0.449997,-0.595001 -0.675995,-1.349998 -0.675995,-2.264c0,-1.154999 0.442993,-2.055 1.328995,-2.697998c0.884003,-0.644005 2.136993,-0.966003 3.753998,-0.966003c0.813004,0 1.576996,0.089996 2.292007,0.268997c0.713989,0.179001 1.455994,0.440002 2.224991,0.784004l-1.153992,2.764c-0.56601,-0.255005 -1.165009,-0.473 -1.796005,-0.652c-0.630005,-0.179001 -1.145996,-0.269005 -1.544998,-0.269005c-0.695999,0 -1.044006,0.172005 -1.044006,0.515007c0,0.211998 0.121002,0.392998 0.363998,0.542999c0.242004,0.149994 0.945007,0.454994 2.106003,0.916c0.862,0.358994 1.507004,0.709999 1.932007,1.052994c0.425003,0.344002 0.735992,0.748001 0.935989,1.212006s0.299011,1.028 0.299011,1.693001zm-56.527008,-23.635002c0.573006,0 1.258003,-0.143002 2.056,-0.428001v3.125999c-0.572998,0.248001 -1.118996,0.426003 -1.639,0.531998c-0.517998,0.106003 -1.125999,0.159004 -1.821999,0.159004c-1.43,0 -2.460999,-0.353004 -3.090996,-1.057999c-0.632004,-0.706001 -0.948006,-1.790001 -0.948006,-3.252003v-5.121998h-1.489998v-1.744003l1.892998,-1.348999l1.100006,-2.610001h2.784996v2.489002h3.027v3.214001h-3.027v4.836998c0.000999,0.804001 0.386002,1.206001 1.155998,1.206001z"/>
  </g>
  <g id="g3331" fill="#4E4E4E">
   <path id="path3333" d="m55.729,80.313004h6.921001v8.642998c-1.880001,0.643997 -3.945,0.965996 -6.197002,0.965996c-2.472,0 -4.382999,-0.716995 -5.730999,-2.150993c-1.348999,-1.433006 -2.023998,-3.477005 -2.023998,-6.131004c0,-2.588997 0.738998,-4.602997 2.216,-6.043999c1.477997,-1.440002 3.546997,-2.161003 6.209,-2.161003c1.008999,0 1.960999,0.095001 2.856998,0.285004c0.895,0.190002 1.675999,0.431999 2.341999,0.723999l-1.370998,3.400002c-1.154999,-0.57 -2.424,-0.855003 -3.806,-0.855003c-1.264999,0 -2.243,0.411003 -2.934002,1.234001c-0.690998,0.821999 -1.036999,1.998001 -1.036999,3.527c0,1.499001 0.313,2.640999 0.938,3.428001c0.625,0.785995 1.526001,1.179001 2.704002,1.179001c0.643997,0 1.235996,-0.062004 1.776997,-0.187004v-2.512001h-2.862999v-3.344994l-0.000999,0zm22.454998,1.030998c0,2.677002 -0.737,4.738998 -2.209999,6.186996c-1.473999,1.446999 -3.544998,2.172005 -6.214996,2.172005h-5.188004v-16.038002h5.551003c2.573997,0 4.560997,0.657997 5.960999,1.974998c1.401001,1.317001 2.100998,3.218002 2.100998,5.704002zm-4.497002,0.153999c0,-1.470001 -0.290993,-2.559998 -0.871994,-3.267998c-0.581001,-0.710007 -1.464005,-1.065002 -2.649002,-1.065002h-1.262001v8.984001h0.965004c1.316994,0 2.280998,-0.382004 2.895996,-1.146004s0.921997,-1.932999 0.921997,-3.504997zm12.463005,-1.184998h6.920998v8.642998c-1.879997,0.643997 -3.945,0.965996 -6.196999,0.965996c-2.472,0 -4.383003,-0.716995 -5.731003,-2.150993c-1.348999,-1.433006 -2.023994,-3.477005 -2.023994,-6.131004c0,-2.588997 0.738998,-4.602997 2.215996,-6.043999c1.478004,-1.440002 3.547005,-2.161003 6.209,-2.161003c1.009003,0 1.960999,0.095001 2.857002,0.285004c0.894997,0.190002 1.676003,0.431999 2.341995,0.723999l-1.370995,3.400002c-1.154999,-0.57 -2.424004,-0.855003 -3.806,-0.855003c-1.264999,0 -2.243004,0.411003 -2.933998,1.234001c-0.691002,0.821999 -1.037003,1.998001 -1.037003,3.527c0,1.499001 0.312996,2.640999 0.937996,3.428001c0.625,0.785995 1.526001,1.179001 2.704002,1.179001c0.643997,0 1.236,-0.062004 1.777,-0.187004v-2.512001h-2.863998v-3.344994l0,0z"/>
  </g>
  <path id="path3340" d="m9.068,124h6.791c1.606999,0 3.603999,-1.127998 4.432,-2.511002l5.719999,-9.518997c0.677,-1.396004 0.653,-3.426003 -0.118999,-4.712997l-3.378,-5.592003l-13.446,22.334999z" fill="url(#e)"/>
  <path id="path3347" d="m16.368,96.514l-15.102,25.249001c-0.583,1.248001 0.023,2.237 1.521,2.237h6.281l13.446,-22.334999l-6.146,-10.173004c0.829,1.378006 0.829,3.638 0,5.022003" fill="url(#f)"/>
  <path id="path3354" d="m2.787,64c-1.613,0 -2.254,1.133003 -1.424,2.511002l24.529,40.744995c0.771999,1.288002 0.795,3.317001 0.118999,4.713005l5.963001,-9.925003l-22.902001,-38.043999h-6.285l0,0z" fill="url(#g)"/>
  <path id="path3361" d="m9.072,64l22.903001,38.044998l3.321001,-5.529999c0.829998,-1.385002 0.829998,-3.644997 0,-5.023003l-15.004002,-24.979996c-0.829,-1.378998 -2.825001,-2.512001 -4.432,-2.512001h-6.788l0,0z" fill="url(#h)"/>
  <g id="g3363" fill="#E6E6E5">
   <path id="path3365" d="m116.07,143.966995c0,2.677002 -0.731003,4.738998 -2.194,6.187012c-1.460999,1.446991 -3.516998,2.171997 -6.165001,2.171997h-5.149002v-16.035004h5.508003c2.554001,0 4.526001,0.656998 5.916,1.973999c1.388,1.315994 2.084,3.216995 2.084,5.701996zm-4.461998,0.153c0,-1.468994 -0.289001,-2.557999 -0.866005,-3.26799c-0.576996,-0.709 -1.451996,-1.064011 -2.627998,-1.064011h-1.251999v8.983002h0.958c1.306999,0 2.264999,-0.382996 2.875,-1.145996c0.607002,-0.764008 0.913002,-1.932007 0.913002,-3.505005zm11.68,8.425003c-2.054001,0 -3.647003,-0.550995 -4.785004,-1.651993c-1.135002,-1.100006 -1.702995,-2.666 -1.702995,-4.700012c0,-2.097992 0.525993,-3.707993 1.577995,-4.829987s2.554001,-1.685013 4.506004,-1.685013c1.856995,0 3.292,0.489014 4.305,1.465012s1.517998,2.381989 1.517998,4.216995v1.908005h-7.607002c0.028999,0.695999 0.282005,1.23999 0.756004,1.634995c0.475998,0.395996 1.121994,0.591003 1.943001,0.591003c0.746994,0 1.435997,-0.070999 2.063995,-0.212006c0.625999,-0.14299 1.306999,-0.386002 2.040001,-0.731003v3.082001c-0.667,0.344009 -1.357002,0.582001 -2.067001,0.714005c-0.712997,0.132004 -1.560997,0.197998 -2.547997,0.197998zm-11.931,-18.373001c-0.5,0 -0.918999,0.158997 -1.256004,0.475998c-0.338997,0.319 -0.535995,0.818008 -0.592995,1.498001h3.656998c-0.014999,-0.598999 -0.182999,-1.078003 -0.504997,-1.436996c-0.325005,-0.358002 -0.759003,-0.537003 -1.303001,-0.537003zm21.652,18.153l-4.701996,-12.427002h4.439987l2.091003,7.348007l0.042007,0.186996l0.065994,0.313004l0.059998,0.384995l0.027008,0.376999h0.074997c0,-0.378998 0.065994,-0.792999 0.195999,-1.23999l2.188004,-7.37001h4.429993l-4.703003,12.427002h-4.209991l0,0zm-8.123001,-18.153h-4.233002v-16.034996h9.404007v3.474998h-5.171005v3.062004h4.768005v3.474998h-4.768005v6.022995l0,0zm20.272003,18.373001c-2.054001,0 -3.647003,-0.550995 -4.785004,-1.651993c-1.134995,-1.100006 -1.703003,-2.666 -1.703003,-4.700012c0,-2.097992 0.526001,-3.707993 1.578003,-4.829987s2.554001,-1.685013 4.505997,-1.685013c1.856995,0 3.292007,0.489014 4.305008,1.465012s1.51799,2.381989 1.51799,4.216995v1.908005h-7.608002c0.029007,0.695999 0.282013,1.23999 0.756012,1.634995c0.475998,0.395996 1.121994,0.591003 1.942993,0.591003c0.746994,0 1.436005,-0.070999 2.063995,-0.212006c0.626007,-0.14299 1.307007,-0.386002 2.040009,-0.731003v3.082001c-0.667007,0.344009 -1.35701,0.582001 -2.067001,0.714005c-0.712997,0.132004 -1.559998,0.197998 -2.546997,0.197998zm-34.052002,-28.320999c-0.5,0 -0.919006,0.159004 -1.256004,0.475998c-0.338997,0.319 -0.535995,0.818001 -0.592995,1.498001h3.656998c-0.014999,-0.598999 -0.182999,-1.077995 -0.505005,-1.436996c-0.324997,-0.358002 -0.758995,-0.537003 -1.302994,-0.537003zm63.593002,24.283997c0,1.331009 -0.450012,2.335999 -1.348999,3.016006c-0.901001,0.681 -2.192001,1.022003 -3.876007,1.022003c-0.914001,0 -1.707993,-0.049011 -2.382004,-0.14801c-0.675995,-0.098999 -1.363998,-0.279999 -2.069,-0.543991v-3.432999c0.661011,0.292999 1.384003,0.534988 2.172012,0.724991s1.488998,0.283997 2.105988,0.283997c0.923004,0 1.382004,-0.210999 1.382004,-0.634995c0,-0.220001 -0.128006,-0.416 -0.386002,-0.585999c-0.255997,-0.171997 -1.007004,-0.507004 -2.246994,-1.005005c-1.132004,-0.466995 -1.923004,-1 -2.373001,-1.595001s-0.677002,-1.352997 -0.677002,-2.266998c0,-1.154999 0.442993,-2.054001 1.328995,-2.696991c0.884003,-0.645004 2.137009,-0.96701 3.753998,-0.96701c0.813004,0 1.577011,0.090012 2.292007,0.269012c0.714005,0.179001 1.455994,0.440994 2.225006,0.783997l-1.154007,2.764999c-0.565994,-0.255997 -1.164993,-0.473999 -1.796005,-0.652008c-0.62999,-0.179001 -1.145996,-0.268997 -1.544998,-0.268997c-0.695999,0 -1.043991,0.171997 -1.043991,0.514999c0,0.212006 0.121002,0.393997 0.363998,0.544006c0.242004,0.149994 0.944992,0.453995 2.106003,0.916c0.862,0.358994 1.506989,0.709 1.931992,1.052994s0.736008,0.747009 0.936005,1.212006c0.199997,0.46199 0.300003,1.028 0.300003,1.692993zm-56.527008,-23.635994c0.573006,0 1.258003,-0.143005 2.056,-0.428001v3.125999c-0.572998,0.249001 -1.118996,0.427002 -1.639,0.532997c-0.517998,0.106003 -1.125999,0.158997 -1.821999,0.158997c-1.43,0 -2.460999,-0.352997 -3.090996,-1.057991c-0.632004,-0.707001 -0.948006,-1.791 -0.948006,-3.251999v-5.123001h-1.489998v-1.743004l1.892998,-1.348999l1.100006,-2.609001h2.784996v2.487999h3.027v3.214005h-3.027v4.837997c0.000999,0.801003 0.386002,1.204002 1.155998,1.204002z"/>
  </g>
  <g id="g3371" fill="#E6E6E5">
   <path id="path3373" d="m55.729,143.313004h6.921001v8.64299c-1.880001,0.645004 -3.945,0.96701 -6.197002,0.96701c-2.472,0 -4.382999,-0.718002 -5.730999,-2.151001c-1.348999,-1.432007 -2.023998,-3.477005 -2.023998,-6.130005c0,-2.589005 0.738998,-4.602997 2.216,-6.043991c1.477997,-1.44101 3.546997,-2.161011 6.209,-2.161011c1.008999,0 1.960999,0.095001 2.856998,0.283997c0.895,0.190002 1.675999,0.432007 2.341999,0.725006l-1.370998,3.399994c-1.154999,-0.570999 -2.424,-0.854996 -3.806,-0.854996c-1.264999,0 -2.243,0.410004 -2.934002,1.234009c-0.690998,0.821991 -1.036999,1.998001 -1.036999,3.526993c0,1.498001 0.313,2.639999 0.938,3.427994c0.625,0.786011 1.526001,1.179001 2.704002,1.179001c0.643997,0 1.235996,-0.061996 1.776997,-0.186996v-2.511993h-2.862999v-3.347l-0.000999,0zm22.454998,1.030991c0,2.677002 -0.737,4.738998 -2.209999,6.187012c-1.473999,1.446991 -3.544998,2.171997 -6.214996,2.171997h-5.188004v-16.03801h5.551003c2.573997,0 4.560997,0.659012 5.960999,1.976013c1.401001,1.315994 2.100998,3.215988 2.100998,5.702988zm-4.497002,0.154007c0,-1.470001 -0.290993,-2.559998 -0.871994,-3.268005c-0.581001,-0.709991 -1.464005,-1.065994 -2.649002,-1.065994h-1.262001v8.985001h0.965004c1.316994,0 2.280998,-0.382996 2.895996,-1.145996c0.614998,-0.766006 0.921997,-1.934006 0.921997,-3.505005zm12.463005,-1.184998h6.920998v8.64299c-1.879997,0.645004 -3.945,0.96701 -6.196999,0.96701c-2.472,0 -4.383003,-0.718002 -5.731003,-2.151001c-1.348999,-1.432007 -2.023994,-3.477005 -2.023994,-6.130005c0,-2.589005 0.738998,-4.602997 2.215996,-6.043991c1.478004,-1.44101 3.547005,-2.161011 6.209,-2.161011c1.009003,0 1.960999,0.095001 2.857002,0.283997c0.894997,0.190002 1.676003,0.432007 2.341995,0.725006l-1.370995,3.399994c-1.154999,-0.570999 -2.424004,-0.854996 -3.806,-0.854996c-1.264999,0 -2.243004,0.410004 -2.933998,1.234009c-0.691002,0.821991 -1.037003,1.998001 -1.037003,3.526993c0,1.498001 0.312996,2.639999 0.937996,3.427994c0.625,0.786011 1.526001,1.179001 2.704002,1.179001c0.643997,0 1.236,-0.061996 1.777,-0.186996v-2.511993h-2.863998v-3.347l0,0z"/>
  </g>
  <path id="path3380" d="m9.068,187h6.791c1.606999,0 3.603999,-1.128006 4.432,-2.511002l5.719999,-9.518997c0.677,-1.395996 0.653,-3.425995 -0.118999,-4.712997l-3.378,-5.59201l-13.446,22.335007z" fill="url(#i)"/>
  <path id="path3387" d="m16.368,159.514008l-15.102,25.249008c-0.583,1.248001 0.023,2.237 1.521,2.237h6.281l13.446,-22.335007l-6.146,-10.173004c0.829,1.378006 0.829,3.638 0,5.022003" fill="url(#j)"/>
  <path id="path3394" d="m2.787,127c-1.613,0 -2.254,1.132996 -1.424,2.511002l24.529,40.744995c0.771999,1.28801 0.795,3.317001 0.118999,4.712997l5.963001,-9.924988l-22.902001,-38.044006h-6.285l0,0z" fill="url(#k)"/>
  <path id="path3401" d="m9.072,127l22.903001,38.044998l3.321001,-5.529999c0.829998,-1.384995 0.829998,-3.645004 0,-5.022995l-15.004002,-24.981003c-0.829,-1.378006 -2.825001,-2.511002 -4.432,-2.511002h-6.788l0,0z" fill="url(#l)"/>
  <text font-size="18px" font-style="normal" font-weight="bold" fill="#000000" font-family="Open Sans" id="text3409" y="46.705635" x="48.66806" xml:space="preserve">2014 Trabzon</text>
  <text font-size="18px" font-style="normal" font-weight="bold" fill="#4e4e4e" font-family="Open Sans" id="text4204" y="107.9332" x="50.237995" xml:space="preserve">2014 Trabzon</text>
  <text font-size="18px" font-style="normal" font-weight="bold" fill="#e7e8e8" font-family="Open Sans" id="text4208" y="173.0856" x="49.453026" xml:space="preserve">2014 Trabzon</text>
  <text font-size="40px" font-style="normal" font-weight="normal" fill="#000000" font-family="Sans" id="text4212" y="150.3215" x="230.78079" xml:space="preserve"/>
 </g>
</svg>