<svg xmlns="http://www.w3.org/2000/svg" width="185" height="188">
 <defs>
  <radialGradient gradientUnits="userSpaceOnUse" gradientTransform="matrix(0.498 0 0 -0.498 76.9553 156.8298)" r="20.1129" cy="214.8535" cx="-119.1396" id="SVGID_1_">
   <stop stop-color="#FFCF4F" offset="0"/>
   <stop stop-color="#F4C236" offset="1"/>
  </radialGradient>
  <radialGradient gradientUnits="userSpaceOnUse" gradientTransform="matrix(0.498 0 0 -0.498 76.9553 156.8298)" r="27.6567" cy="225.0684" cx="-131.1914" id="SVGID_2_">
   <stop stop-color="#08A960" offset="0"/>
   <stop stop-color="#07914B" offset="1"/>
  </radialGradient>
  <radialGradient gradientUnits="userSpaceOnUse" gradientTransform="matrix(0.498 0 0 -0.498 76.9553 156.8298)" r="40.5378" cy="264.75" cx="-121.7402" id="SVGID_3_">
   <stop stop-color="#567FC0" offset="0"/>
   <stop stop-color="#557FC0" offset="1"/>
  </radialGradient>
  <radialGradient gradientUnits="userSpaceOnUse" gradientTransform="matrix(0.498 0 0 -0.498 76.9553 156.8298)" r="33.0579" cy="274.7129" cx="-109.6758" id="SVGID_4_">
   <stop stop-color="#E14C40" offset="0"/>
   <stop stop-color="#CD392D" offset="1"/>
  </radialGradient>
  <radialGradient gradientUnits="userSpaceOnUse" gradientTransform="matrix(0.498 0 0 -0.498 76.9553 156.8298)" r="20.1129" cy="88.3486" cx="-119.1396" id="SVGID_5_">
   <stop stop-color="#CCCCCC" offset="0"/>
   <stop stop-color="#C0C0C0" offset="1"/>
  </radialGradient>
  <radialGradient gradientUnits="userSpaceOnUse" gradientTransform="matrix(0.498 0 0 -0.498 76.9553 156.8298)" r="27.6567" cy="98.5615" cx="-131.1914" id="SVGID_6_">
   <stop stop-color="#A0A0A0" offset="0"/>
   <stop stop-color="#7B7B7B" offset="1"/>
  </radialGradient>
  <radialGradient gradientUnits="userSpaceOnUse" gradientTransform="matrix(0.498 0 0 -0.498 76.9553 156.8298)" r="40.5378" cy="138.2432" cx="-121.7402" id="SVGID_7_">
   <stop stop-color="#848484" offset="0"/>
   <stop stop-color="#838383" offset="1"/>
  </radialGradient>
  <radialGradient gradientUnits="userSpaceOnUse" gradientTransform="matrix(0.498 0 0 -0.498 76.9553 156.8298)" r="33.0574" cy="148.207" cx="-109.6758" id="SVGID_8_">
   <stop stop-color="#626262" offset="0"/>
   <stop stop-color="#474747" offset="1"/>
  </radialGradient>
  <radialGradient gradientUnits="userSpaceOnUse" gradientTransform="matrix(0.498 0 0 -0.498 76.9553 156.8298)" r="20.1125" cy="-38.1582" cx="-118.8223" id="SVGID_9_">
   <stop stop-color="#FFCF4F" offset="0"/>
   <stop stop-color="#F4C236" offset="1"/>
  </radialGradient>
  <radialGradient gradientUnits="userSpaceOnUse" gradientTransform="matrix(0.498 0 0 -0.498 76.9553 156.8298)" r="27.6563" cy="-27.9443" cx="-130.873" id="SVGID_10_">
   <stop stop-color="#08A960" offset="0"/>
   <stop stop-color="#07914B" offset="1"/>
  </radialGradient>
  <radialGradient gradientUnits="userSpaceOnUse" gradientTransform="matrix(0.498 0 0 -0.498 76.9553 156.8298)" r="40.5378" cy="11.7373" cx="-121.4229" id="SVGID_11_">
   <stop stop-color="#567FC0" offset="0"/>
   <stop stop-color="#557FC0" offset="1"/>
  </radialGradient>
  <radialGradient gradientUnits="userSpaceOnUse" gradientTransform="matrix(0.498 0 0 -0.498 76.9553 156.8298)" r="33.0574" cy="21.7012" cx="-109.3584" id="SVGID_12_">
   <stop stop-color="#E14C40" offset="0"/>
   <stop stop-color="#CD392D" offset="1"/>
  </radialGradient>
 </defs>
 <g>
  <title>background</title>
  <rect fill="none" id="canvas_background" height="402" width="582" y="-1" x="-1"/>
 </g>
 <g>
  <title>Layer 1</title>
  <g id="svg_1">
   <g id="svg_2">
    <path id="svg_3" d="m115.912003,17.967001c0,2.675999 -0.730003,4.737999 -2.193001,6.185999c-1.461998,1.448 -3.518005,2.171 -6.166,2.171l-5.148003,0l0,-16.033999l5.508003,0c2.554001,0 4.525002,0.658 5.916,1.974c1.388,1.316 2.083,3.217 2.083,5.703001zm-4.462006,0.153999c0,-1.469 -0.288994,-2.559 -0.865997,-3.268001s-1.453003,-1.064 -2.627998,-1.064l-1.250999,0l0,8.982l0.958,0c1.306,0 2.264,-0.382 2.874001,-1.146c0.609001,-0.764 0.912994,-1.931999 0.912994,-3.504z" fill="#4E4E4E"/>
    <path id="svg_4" d="m123.128998,26.544001c-2.053001,0 -3.645996,-0.550001 -4.782997,-1.650002c-1.136002,-1.101 -1.703003,-2.667 -1.703003,-4.699999c0,-2.099001 0.525002,-3.709 1.578003,-4.832c1.053001,-1.122001 2.555,-1.684 4.505997,-1.684c1.856003,0 3.292999,0.488 4.305,1.464s1.520004,2.382 1.520004,4.216999l0,1.908001l-7.609001,0c0.028999,0.695 0.280998,1.239 0.759003,1.634001c0.474998,0.394999 1.119995,0.591999 1.939995,0.591999c0.748001,0 1.437004,-0.070999 2.063004,-0.214001c0.628998,-0.143 1.309998,-0.386 2.041,-0.729l0,3.082001c-0.667999,0.344 -1.356003,0.580999 -2.068001,0.712999c-0.713005,0.133001 -1.561005,0.199001 -2.549004,0.199001zm-0.25,-9.948c-0.5,0 -0.919998,0.158998 -1.255997,0.476999c-0.337997,0.318001 -0.537003,0.816999 -0.594002,1.497l3.655998,0c-0.014999,-0.598999 -0.184998,-1.077999 -0.505997,-1.437c-0.321999,-0.358999 -0.754997,-0.536999 -1.300003,-0.536999z" fill="#4E4E4E"/>
    <path id="svg_5" d="m132.852005,26.325001l-4.703003,-12.426001l4.440002,0l2.091003,7.348c0.007996,0.037001 0.020996,0.099001 0.042999,0.187c0.022003,0.087999 0.042999,0.191999 0.065002,0.313c0.020996,0.121 0.041,0.249001 0.059998,0.384001c0.018997,0.136 0.027008,0.261999 0.027008,0.378l0.075989,0c0,-0.380001 0.064011,-0.793001 0.195007,-1.239l2.188004,-7.370001l4.429993,0l-4.701004,12.426001l-4.210999,-0.000999l0,0z" fill="#4E4E4E"/>
    <path id="svg_6" d="m146.380997,26.325001l-4.233994,0l0,-16.035001l9.403992,0l0,3.477l-5.169998,0l0,3.059999l4.768005,0l0,3.477001l-4.768005,0l0,6.021l0,0z" fill="#4E4E4E"/>
    <path id="svg_7" d="m158.526993,26.544001c-2.053009,0 -3.645996,-0.550001 -4.781998,-1.650002s-1.703003,-2.667 -1.703003,-4.699999c0,-2.099001 0.524002,-3.709 1.578003,-4.832c1.052002,-1.122001 2.554001,-1.684 4.505997,-1.684c1.856003,0 3.291992,0.488 4.306,1.464c1.011993,0.976 1.518997,2.382 1.518997,4.216999l0,1.908001l-7.608002,0c0.029007,0.695 0.281006,1.239 0.757996,1.634001c0.475006,0.394999 1.121002,0.591999 1.94101,0.591999c0.746994,0 1.436005,-0.070999 2.061996,-0.214001c0.628998,-0.143 1.309006,-0.386 2.041,-0.729l0,3.082001c-0.667999,0.344 -1.356003,0.580999 -2.067001,0.712999c-0.713989,0.133001 -1.561981,0.199001 -2.550995,0.199001zm-0.25,-9.948c-0.5,0 -0.919998,0.158998 -1.255997,0.476999c-0.338013,0.318001 -0.537003,0.816999 -0.595001,1.497l3.656998,0c-0.016006,-0.598999 -0.184006,-1.077999 -0.505997,-1.437c-0.320999,-0.358 -0.75499,-0.536999 -1.300003,-0.536999z" fill="#4E4E4E"/>
    <path id="svg_8" d="m174.541,22.507999c0,1.331001 -0.449997,2.336 -1.350006,3.016001c-0.899994,0.68 -2.190994,1.02 -3.875,1.02c-0.914001,0 -1.709,-0.049 -2.384995,-0.148001c-0.675003,-0.098999 -1.363007,-0.280001 -2.065994,-0.542999l0,-3.433001c0.659988,0.292 1.383987,0.534 2.17099,0.723999s1.488998,0.285002 2.106003,0.285002c0.919998,0 1.380997,-0.212002 1.380997,-0.636002c0,-0.219 -0.128998,-0.414999 -0.384995,-0.585999c-0.259003,-0.172001 -1.007996,-0.506001 -2.248001,-1.004002c-1.132996,-0.467999 -1.923996,-1 -2.373001,-1.595999s-0.675995,-1.351 -0.675995,-2.265001c0,-1.154999 0.442001,-2.054999 1.328003,-2.697999c0.884995,-0.644 2.136993,-0.965 3.75499,-0.965c0.813004,0 1.576004,0.09 2.291,0.269c0.716003,0.179 1.457001,0.440001 2.227997,0.784l-1.153992,2.764c-0.563995,-0.256001 -1.164001,-0.473 -1.796005,-0.652c-0.632004,-0.178999 -1.145996,-0.268999 -1.54599,-0.268999c-0.695999,0 -1.045013,0.171999 -1.045013,0.515999c0,0.212 0.121002,0.393 0.365005,0.543001c0.242004,0.15 0.944,0.455 2.104996,0.915998c0.863007,0.358002 1.507004,0.709002 1.932007,1.053001c0.425995,0.344 0.735992,0.747999 0.936996,1.212c0.199997,0.462999 0.300003,1.028 0.300003,1.692999z" fill="#4E4E4E"/>
    <path id="svg_9" d="m181.604996,23.155001c0.572006,0 1.259003,-0.143002 2.057999,-0.428001l0,3.126001c-0.572998,0.248999 -1.118988,0.425999 -1.639999,0.532c-0.518997,0.105 -1.125,0.159 -1.820999,0.159c-1.431,0 -2.459991,-0.353001 -3.093002,-1.058001c-0.630997,-0.705999 -0.944992,-1.790001 -0.944992,-3.252001l0,-5.122l-1.490997,0l0,-1.743999l1.893997,-1.349l1.100998,-2.61l2.785995,0l0,2.49l3.025009,0l0,3.212999l-3.025009,0l0,4.837c-0.001999,0.804001 0.383011,1.206001 1.151001,1.206001z" fill="#4E4E4E"/>
   </g>
   <g id="svg_10">
    <path id="svg_11" d="m55.570999,17.313l6.922001,0l0,8.644001c-1.879002,0.643999 -3.945,0.965 -6.198002,0.965c-2.471996,0 -4.382,-0.716002 -5.730999,-2.150002c-1.348999,-1.432999 -2.023998,-3.476999 -2.023998,-6.132c0,-2.588999 0.738998,-4.603 2.216,-6.044c1.477001,-1.44 3.547001,-2.160999 6.208,-2.160999c1.008999,0 1.961998,0.094999 2.857998,0.285c0.896,0.19 1.676003,0.432 2.342003,0.724l-1.371002,3.4c-1.155998,-0.57 -2.424,-0.854 -3.806999,-0.854c-1.264999,0 -2.243,0.412001 -2.934002,1.234c-0.690998,0.823001 -1.036999,1.999 -1.036999,3.526999c0,1.499001 0.313,2.642 0.938,3.428001c0.625,0.785999 1.526001,1.178999 2.704002,1.178999c0.643997,0 1.236,-0.062 1.776997,-0.187l0,-2.511999l-2.862999,0l0,-3.346001z" fill="#4E4E4E"/>
    <path id="svg_12" d="m78.026001,18.344c0,2.676001 -0.737,4.739 -2.209999,6.188c-1.473,1.448 -3.544998,2.172001 -6.214005,2.172001l-5.187996,0l0,-16.038l5.550995,0c2.574005,0 4.561005,0.658 5.961006,1.974999c1.399994,1.317 2.099998,3.217 2.099998,5.703zm-4.497002,0.153999c0,-1.469999 -0.291,-2.559999 -0.872002,-3.268999c-0.582001,-0.709 -1.463997,-1.064 -2.648994,-1.064l-1.262001,0l0,8.983001l0.964996,0c1.316002,0 2.281998,-0.382 2.896004,-1.146c0.613998,-0.764 0.921997,-1.932001 0.921997,-3.504002z" fill="#4E4E4E"/>
    <path id="svg_13" d="m85.990997,17.313l6.922005,0l0,8.644001c-1.879005,0.643999 -3.945,0.965 -6.198006,0.965c-2.472,0 -4.381996,-0.716002 -5.730995,-2.150002c-1.348999,-1.432999 -2.024002,-3.476999 -2.024002,-6.132c0,-2.588999 0.738998,-4.603 2.216003,-6.044c1.476997,-1.44 3.546997,-2.160999 6.208,-2.160999c1.008995,0 1.961998,0.094999 2.857994,0.285c0.896004,0.19 1.676003,0.432 2.342003,0.724l-1.371002,3.4c-1.155998,-0.57 -2.423996,-0.854 -3.806999,-0.854c-1.264999,0 -2.242996,0.412001 -2.933998,1.234c-0.691002,0.823001 -1.037003,1.999 -1.037003,3.526999c0,1.499001 0.313004,2.642 0.938004,3.428001c0.625,0.785999 1.526001,1.178999 2.704002,1.178999c0.643997,0 1.236,-0.062 1.776993,-0.187l0,-2.511999l-2.862999,0l0,-3.346001z" fill="#4E4E4E"/>
   </g>
   <path id="svg_14" d="m8.91,61l6.791,0c1.607,0 3.604,-1.127998 4.431999,-2.511002l5.720001,-9.519997c0.677,-1.396 0.653,-3.426003 -0.119001,-4.713001l-3.377998,-5.591999l-13.446001,22.335999z" fill="url(#SVGID_1_)"/>
   <path id="svg_15" d="m16.209,33.514l-15.101,25.249001c-0.584,1.248001 0.023,2.237 1.521,2.237l6.281,0l13.446001,-22.334999l-6.146002,-10.173c0.829,1.378 0.829,3.638 -0.000999,5.021999" fill="url(#SVGID_2_)"/>
   <path id="svg_16" d="m2.629,1c-1.614,0 -2.254,1.133 -1.424,2.511l24.528999,40.745001c0.772001,1.287998 0.795,3.317001 0.119001,4.713001l5.962999,-9.925003l-22.902,-38.043999l-6.285,0z" fill="url(#SVGID_3_)"/>
   <path id="svg_17" d="m8.914,1l22.903,38.044998l3.321001,-5.529999c0.829998,-1.384998 0.829998,-3.644999 0,-5.022999l-15.005001,-24.981001c-0.827999,-1.378 -2.824999,-2.511 -4.431999,-2.511l-6.787001,0z" fill="url(#SVGID_4_)"/>
  </g>
  <g id="svg_18">
   <g id="svg_19">
    <path id="svg_20" d="m115.912003,80.967003c0,2.676994 -0.730003,4.737999 -2.193001,6.186996c-1.461998,1.446999 -3.518005,2.170998 -6.166,2.170998l-5.148003,0l0,-16.034996l5.508003,0c2.554001,0 4.525002,0.656998 5.916,1.973999c1.389,1.317001 2.083,3.217003 2.083,5.703003zm-4.462006,0.153c0,-1.469002 -0.288994,-2.559006 -0.865997,-3.268005c-0.576996,-0.709999 -1.453003,-1.063995 -2.627998,-1.063995l-1.250999,0l0,8.981995l0.958,0c1.306,0 2.264,-0.381996 2.874001,-1.145996c0.607994,-0.764 0.912994,-1.931999 0.912994,-3.503998z" fill="#4E4E4E"/>
    <path id="svg_21" d="m123.128998,89.543999c-2.053001,0 -3.645996,-0.549995 -4.782997,-1.650002c-1.136002,-1.100998 -1.703003,-2.667 -1.703003,-4.699997c0,-2.098999 0.525002,-3.709 1.578003,-4.831001c1.053001,-1.122002 2.555,-1.683998 4.505997,-1.683998c1.856003,0 3.292999,0.487999 4.305,1.463997c1.012009,0.977005 1.520004,2.382004 1.520004,4.218002l0,1.907997l-7.609001,0c0.028999,0.694 0.280998,1.239006 0.759003,1.634003c0.474998,0.396004 1.119995,0.593002 1.939995,0.593002c0.748001,0 1.437004,-0.070999 2.063004,-0.214005c0.628998,-0.142998 1.309998,-0.385994 2.041,-0.728996l0,3.082001c-0.667999,0.343994 -1.356003,0.581001 -2.068001,0.712997c-0.713005,0.129997 -1.561005,0.195999 -2.549004,0.195999zm-0.25,-9.947998c-0.5,0 -0.919998,0.158997 -1.255997,0.477997c-0.337997,0.318001 -0.537003,0.817001 -0.594002,1.497002l3.655998,0c-0.014999,-0.599998 -0.184998,-1.078003 -0.505997,-1.436996c-0.321999,-0.359001 -0.754997,-0.538002 -1.300003,-0.538002z" fill="#4E4E4E"/>
    <path id="svg_22" d="m132.852005,89.323997l-4.703003,-12.425995l4.440002,0l2.091003,7.348c0.007996,0.036995 0.020996,0.098999 0.042999,0.186996c0.022003,0.088005 0.042999,0.192001 0.065002,0.313004c0.020996,0.120995 0.041,0.249001 0.059998,0.383995c0.018997,0.136002 0.027008,0.262001 0.027008,0.379005l0.075989,0c0,-0.380005 0.064011,-0.792999 0.195007,-1.239006l2.188004,-7.369995l4.429993,0l-4.701004,12.425995l-4.210999,0l0,-0.001999z" fill="#4E4E4E"/>
    <path id="svg_23" d="m146.380997,89.323997l-4.233994,0l0,-16.033997l9.403992,0l0,3.476997l-5.169998,0l0,3.060005l4.768005,0l0,3.476997l-4.768005,0l0,6.019997l0,0z" fill="#4E4E4E"/>
    <path id="svg_24" d="m158.526993,89.543999c-2.053009,0 -3.645996,-0.549995 -4.781998,-1.650002s-1.703003,-2.667 -1.703003,-4.699997c0,-2.098999 0.524002,-3.709 1.578003,-4.831001c1.052002,-1.122002 2.554001,-1.683998 4.505997,-1.683998c1.856003,0 3.291992,0.487999 4.306,1.463997c1.011993,0.977005 1.518997,2.382004 1.518997,4.218002l0,1.907997l-7.608002,0c0.029007,0.694 0.281006,1.239006 0.757996,1.634003c0.475006,0.396004 1.121002,0.593002 1.94101,0.593002c0.746994,0 1.436005,-0.070999 2.061996,-0.214005c0.628998,-0.142998 1.309006,-0.385994 2.041,-0.728996l0,3.082001c-0.667999,0.343994 -1.356003,0.581001 -2.067001,0.712997c-0.713989,0.129997 -1.561981,0.195999 -2.550995,0.195999zm-0.25,-9.947998c-0.5,0 -0.919998,0.158997 -1.255997,0.477997c-0.338013,0.318001 -0.537003,0.817001 -0.595001,1.497002l3.656998,0c-0.016006,-0.599998 -0.184006,-1.078003 -0.505997,-1.436996c-0.320999,-0.359001 -0.75499,-0.538002 -1.300003,-0.538002z" fill="#4E4E4E"/>
    <path id="svg_25" d="m174.541,85.508003c0,1.330994 -0.449997,2.335999 -1.350006,3.015999c-0.899994,0.681 -2.190994,1.020996 -3.875,1.020996c-0.914001,0 -1.709,-0.049995 -2.384995,-0.147995c-0.675003,-0.098 -1.363007,-0.279007 -2.065994,-0.543007l0,-3.433998c0.659988,0.292999 1.383987,0.534004 2.17099,0.723999s1.488998,0.285004 2.106003,0.285004c0.919998,0 1.380997,-0.211998 1.380997,-0.636002c0,-0.220001 -0.128998,-0.415001 -0.384995,-0.586998c-0.259003,-0.172005 -1.007996,-0.506004 -2.248001,-1.003998c-1.132996,-0.468002 -1.923996,-0.999001 -2.373001,-1.596001c-0.449005,-0.596001 -0.675995,-1.351006 -0.675995,-2.264999c0,-1.155006 0.442001,-2.055 1.328003,-2.698006c0.884995,-0.643997 2.136993,-0.964996 3.75499,-0.964996c0.813004,0 1.576004,0.089996 2.291,0.269997c0.716003,0.18 1.457001,0.440002 2.227997,0.784004l-1.153992,2.764c-0.563995,-0.256004 -1.164001,-0.473 -1.796005,-0.652c-0.632004,-0.179001 -1.145996,-0.269005 -1.54599,-0.269005c-0.695999,0 -1.045013,0.172005 -1.045013,0.516006c0,0.211998 0.121002,0.392998 0.365005,0.542999c0.242004,0.148994 0.944,0.454994 2.104996,0.915001c0.863007,0.357994 1.507004,0.709999 1.932007,1.053993c0.425995,0.344002 0.735992,0.747002 0.936996,1.212006c0.199997,0.461998 0.300003,1.028 0.300003,1.693001z" fill="#4E4E4E"/>
    <path id="svg_26" d="m181.604996,86.153999c0.572006,0 1.259003,-0.142998 2.057999,-0.428001l0,3.125999c-0.572998,0.249001 -1.118988,0.427002 -1.639999,0.532005c-0.518997,0.104996 -1.125,0.158997 -1.820999,0.158997c-1.431,0 -2.459991,-0.352997 -3.093002,-1.058998c-0.630997,-0.705002 -0.944992,-1.789001 -0.944992,-3.251999l0,-5.122002l-1.490997,0l0,-1.743004l1.893997,-1.349998l1.100998,-2.610001l2.785995,0l0,2.490005l3.025009,0l0,3.212997l-3.025009,0l0,4.836998c-0.001999,0.806 0.383011,1.207001 1.151001,1.207001z" fill="#4E4E4E"/>
   </g>
   <g id="svg_27" display="none">
    <path id="svg_28" d="m60.282001,110.886002l-10.251003,0l0,-1.841003l3.900002,-3.920998c1.151001,-1.181 1.915001,-2.016998 2.291,-2.509003c0.375999,-0.492996 0.650002,-0.957001 0.821999,-1.392998c0.172001,-0.433998 0.259003,-0.898003 0.259003,-1.396004c0,-0.682999 -0.205002,-1.222 -0.616001,-1.612999c-0.41,-0.393997 -0.978001,-0.589996 -1.702,-0.589996c-0.579002,0 -1.139999,0.105995 -1.681,0.320999c-0.542,0.213997 -1.167,0.599998 -1.877003,1.157997l-1.313,-1.601997c0.841003,-0.709999 1.659,-1.213997 2.452003,-1.510002c0.792999,-0.296997 1.637997,-0.445 2.535,-0.445c1.406998,0 2.533997,0.367004 3.382,1.102005c0.848,0.735001 1.271999,1.723999 1.271999,2.964996c0,0.682999 -0.123001,1.330002 -0.367001,1.943001c-0.244999,0.613998 -0.621002,1.247002 -1.126999,1.898003c-0.506001,0.649994 -1.350002,1.532997 -2.529003,2.644997l-2.626999,2.542999l0,0.104004l7.179001,0l0,2.140999l-0.001999,0z" fill="#4E4E4E"/>
    <path id="svg_29" d="m71.103996,103.323997c0,2.626999 -0.421997,4.578003 -1.266998,5.854004c-0.845001,1.276001 -2.136002,1.914001 -3.874001,1.914001c-1.682999,0 -2.957996,-0.658005 -3.826996,-1.976006c-0.869003,-1.316994 -1.304001,-3.248001 -1.304001,-5.792999c0,-2.668999 0.422001,-4.636002 1.267998,-5.901001c0.844002,-1.265999 2.132004,-1.897995 3.862999,-1.897995c1.689003,0 2.969002,0.661995 3.838005,1.986c0.868996,1.323997 1.302994,3.261002 1.302994,5.813995zm-7.810997,0c0,2.062004 0.212002,3.533005 0.636002,4.417c0.423996,0.883003 1.101997,1.323006 2.032997,1.323006c0.931,0 1.612,-0.447006 2.042999,-1.345001c0.431,-0.896004 0.646004,-2.362 0.646004,-4.396004c0,-2.027 -0.215004,-3.494995 -0.646004,-4.401001c-0.431,-0.906998 -1.112,-1.360001 -2.042999,-1.360001c-0.931,0 -1.608002,0.444 -2.032997,1.334007c-0.423,0.889999 -0.636002,2.365997 -0.636002,4.427994z" fill="#4E4E4E"/>
    <path id="svg_30" d="m78.811996,110.886002l-2.431,0l0,-9.765999c0,-1.165001 0.027,-2.089005 0.083,-2.771004c-0.158997,0.164001 -0.353996,0.348 -0.584,0.547005c-0.230995,0.200996 -1.004997,0.835999 -2.322998,1.903l-1.220001,-1.541l4.448006,-3.497002l2.028,0l-0.001007,15.125l0,0z" fill="#4E4E4E"/>
    <path id="svg_31" d="m93.285004,107.585999l-2.038002,0l0,3.300003l-2.369003,0l0,-3.300003l-6.909996,0l0,-1.872002l6.909996,-9.992996l2.369003,0l0,9.848l2.038002,0l0,2.016998zm-4.407005,-2.017998l0,-3.796997c0,-1.352005 0.035004,-2.459007 0.104004,-3.319l-0.083,0c-0.193001,0.454994 -0.496002,1.006996 -0.910004,1.653l-3.754997,5.462997l4.643997,0z" fill="#4E4E4E"/>
    <path id="svg_32" d="m107.334999,106.778999c0,1.345001 -0.485001,2.398003 -1.458,3.164001c-0.973,0.766998 -2.313995,1.148003 -4.023003,1.148003c-1.710999,0 -3.109993,-0.266006 -4.200996,-0.797005l0,-2.337997c0.689003,0.323997 1.422997,0.579002 2.198997,0.765999c0.775002,0.188004 1.498001,0.278999 2.166,0.278999c0.979004,0 1.703003,-0.187996 2.167999,-0.558998c0.465004,-0.373001 0.697006,-0.873001 0.697006,-1.5c0,-0.565002 -0.214005,-1.044998 -0.641006,-1.438004c-0.427994,-0.393997 -1.310997,-0.857994 -2.647995,-1.395996c-1.379005,-0.560005 -2.352005,-1.195999 -2.917,-1.914001c-0.565002,-0.717003 -0.848,-1.579002 -0.848,-2.585999c0,-1.262001 0.447998,-2.256004 1.345001,-2.979004s2.099998,-1.085999 3.609993,-1.085999c1.448006,0 2.890007,0.317001 4.323006,0.952003l-0.785004,2.017998c-1.346001,-0.565002 -2.544998,-0.848999 -3.599998,-0.848999c-0.801003,0 -1.407997,0.173996 -1.82,0.520996c-0.414001,0.350006 -0.621002,0.811005 -0.621002,1.383003c0,0.392998 0.082001,0.728996 0.248001,1.007996c0.164001,0.279007 0.438004,0.543007 0.816002,0.792c0.378998,0.248001 1.061996,0.575005 2.048996,0.981003c1.109001,0.462997 1.924004,0.895004 2.440002,1.292999c0.516998,0.400002 0.896004,0.853004 1.138,1.355003c0.241997,0.505997 0.362999,1.100998 0.362999,1.781998z" fill="#4E4E4E"/>
    <path id="svg_33" d="m113.728996,111.093002c-1.778,0 -3.169998,-0.519005 -4.173996,-1.556999c-1.002998,-1.038002 -1.504997,-2.468002 -1.504997,-4.288002c0,-1.869003 0.465996,-3.337997 1.395996,-4.406998c0.931999,-1.067001 2.210999,-1.603004 3.839005,-1.603004c1.509995,0 2.701996,0.457001 3.578995,1.375c0.875,0.917999 1.312004,2.18 1.312004,3.785004l0,1.313995l-7.624001,0c0.033997,1.110001 0.334999,1.964005 0.900002,2.561005s1.362,0.895996 2.389999,0.895996c0.675995,0 1.305,-0.062996 1.889,-0.190002c0.582001,-0.128998 1.207001,-0.339996 1.876999,-0.637993l0,1.975998c-0.594002,0.282997 -1.193001,0.483002 -1.801003,0.601997c-0.607002,0.117004 -1.297997,0.174004 -2.078003,0.174004zm-0.443993,-10.014c-0.771004,0 -1.393005,0.244995 -1.857002,0.732994c-0.465004,0.490005 -0.742004,1.205002 -0.832001,2.143005l5.192001,0c-0.014999,-0.945 -0.242004,-1.660004 -0.682999,-2.146004c-0.441002,-0.486 -1.048004,-0.729996 -1.82,-0.729996z" fill="#4E4E4E"/>
    <path id="svg_34" d="m126.825996,110.886002l-0.486,-1.593002l-0.081993,0c-0.553001,0.695999 -1.107002,1.170998 -1.666,1.421997c-0.559006,0.252007 -1.275002,0.378006 -2.152,0.378006c-1.123001,0 -2,-0.304001 -2.631004,-0.909004c-0.632996,-0.606995 -0.946999,-1.466995 -0.946999,-2.575996c0,-1.18 0.438004,-2.068001 1.314003,-2.669998c0.875,-0.600006 2.209,-0.928001 4.001999,-0.981003l1.976997,-0.063004l0,-0.608994c0,-0.730003 -0.171997,-1.277 -0.512001,-1.641006c-0.341995,-0.360001 -0.870995,-0.542999 -1.587997,-0.542999c-0.585999,0 -1.147003,0.088005 -1.688004,0.260002c-0.536995,0.172997 -1.055,0.375 -1.550995,0.609001l-0.787003,-1.736c0.621002,-0.323997 1.301003,-0.570999 2.039001,-0.739998s1.433998,-0.253006 2.089996,-0.253006c1.455002,0 2.553001,0.317001 3.295006,0.950005c0.73999,0.636002 1.110992,1.630997 1.110992,2.989998l0,7.706001l-1.737999,0l0,-0.000999zm-3.620995,-1.655998c0.882996,0 1.591995,-0.246002 2.126999,-0.739006c0.532997,-0.492996 0.801003,-1.184998 0.801003,-2.073997l0,-0.992996l-1.469002,0.061996c-1.145004,0.041 -1.977005,0.232002 -2.498001,0.573997s-0.780998,0.862999 -0.780998,1.566002c0,0.512001 0.152,0.904999 0.454994,1.185997c0.305,0.279007 0.760002,0.418007 1.365005,0.418007z" fill="#4E4E4E"/>
    <path id="svg_35" d="m138.371994,107.626999c0,1.117004 -0.406998,1.974998 -1.222,2.570999c-0.811996,0.596001 -1.979004,0.895004 -3.496002,0.895004c-1.522995,0 -2.748001,-0.231003 -3.671997,-0.692001l0,-2.100998c1.345001,0.619995 2.597,0.931 3.753998,0.931c1.498001,0 2.246002,-0.450005 2.246002,-1.354004c0,-0.290001 -0.084,-0.530998 -0.248001,-0.724998c-0.166,-0.193001 -0.438004,-0.393997 -0.817001,-0.600998s-0.906998,-0.440002 -1.583008,-0.704002c-1.315994,-0.510002 -2.207993,-1.021004 -2.673996,-1.528999c-0.466995,-0.512001 -0.697998,-1.174004 -0.697998,-1.986c0,-0.979004 0.395996,-1.738998 1.184998,-2.280998c0.789001,-0.541 1.863007,-0.812004 3.223999,-0.812004c1.345001,0 2.615997,0.271004 3.815002,0.815002l-0.785004,1.831001c-1.233994,-0.510002 -2.272003,-0.765999 -3.112991,-0.765999c-1.283005,0 -1.924011,0.365997 -1.924011,1.097c0,0.358994 0.166,0.661995 0.501007,0.909996c0.335007,0.249001 1.063004,0.590004 2.188004,1.023003c0.942993,0.366997 1.630997,0.700996 2.05899,1.004997c0.427002,0.303001 0.744003,0.653 0.951004,1.050003s0.309006,0.870995 0.309006,1.422997z" fill="#4E4E4E"/>
    <path id="svg_36" d="m149.876007,105.144997c0,1.869003 -0.479004,3.328003 -1.438004,4.377007c-0.959,1.046997 -2.292999,1.570999 -4.003998,1.570999c-1.067001,0 -2.013992,-0.241005 -2.834,-0.725006c-0.819992,-0.481995 -1.450989,-1.176994 -1.893997,-2.078995c-0.442001,-0.903 -0.662003,-1.951004 -0.662003,-3.145004c0,-1.854996 0.477997,-3.304001 1.429001,-4.346001c0.951004,-1.040993 2.292999,-1.561996 4.02301,-1.561996c1.653992,0 2.964996,0.532997 3.931,1.598999s1.44899,2.502998 1.44899,4.309998zm-8.327011,0c0,2.643005 0.977005,3.963005 2.928009,3.963005c1.931992,0 2.895996,-1.32 2.895996,-3.963005c0,-2.612 -0.973007,-3.919998 -2.917999,-3.919998c-1.020996,0 -1.759995,0.338005 -2.219009,1.014999c-0.459,0.674004 -0.686996,1.643005 -0.686996,2.904999z" fill="#4E4E4E"/>
    <path id="svg_37" d="m161.462997,110.886002l-2.440994,0l0,-7.034004c0,-0.882996 -0.178009,-1.541 -0.531006,-1.975998c-0.354996,-0.434998 -0.919998,-0.651001 -1.690994,-0.651001c-1.027008,0 -1.779007,0.303001 -2.255005,0.910004c-0.477997,0.605995 -0.714005,1.624001 -0.714005,3.050995l0,5.700005l-2.431992,0l0,-11.443001l1.903,0l0.341003,1.5l0.125,0c0.343994,-0.542999 0.834,-0.965004 1.468994,-1.262001c0.634995,-0.295998 1.337997,-0.443001 2.108994,-0.443001c2.74501,0 4.117004,1.396004 4.117004,4.188004l0,7.459999z" fill="#4E4E4E"/>
   </g>
   <g id="svg_38">
    <path id="svg_39" d="m55.570999,80.313004l6.922001,0l0,8.643997c-1.879002,0.643997 -3.945,0.965996 -6.198002,0.965996c-2.471996,0 -4.382,-0.716995 -5.730999,-2.149994s-2.023998,-3.477005 -2.023998,-6.132004c0,-2.588997 0.738998,-4.602997 2.216,-6.043999c1.477001,-1.440002 3.547001,-2.161003 6.208,-2.161003c1.008999,0 1.961998,0.096001 2.857998,0.285004c0.896,0.190002 1.676003,0.431999 2.342003,0.724998l-1.371002,3.400002c-1.155998,-0.57 -2.424,-0.855003 -3.806999,-0.855003c-1.264999,0 -2.243,0.411003 -2.934002,1.233002c-0.690998,0.822998 -1.036999,1.999001 -1.036999,3.527c0,1.499001 0.313,2.641998 0.938,3.428001c0.625,0.785995 1.526001,1.179001 2.704002,1.179001c0.643997,0 1.236,-0.062004 1.776997,-0.187004l0,-2.512001l-2.862999,0l0,-3.345993z" fill="#4E4E4E"/>
    <path id="svg_40" d="m78.026001,81.344002c0,2.677002 -0.737,4.738998 -2.209999,6.187996c-1.473999,1.448006 -3.544998,2.172005 -6.214005,2.172005l-5.187996,0l0,-16.039001l5.550995,0c2.574005,0 4.561005,0.657997 5.961006,1.974998c1.399994,1.317001 2.099998,3.217003 2.099998,5.704002zm-4.497002,0.153c0,-1.470001 -0.291,-2.560005 -0.872002,-3.269005c-0.581001,-0.709 -1.463997,-1.062996 -2.648994,-1.062996l-1.262001,0l0,8.983002l0.964996,0c1.316002,0 2.281998,-0.382004 2.896004,-1.146004c0.614998,-0.764 0.921997,-1.932999 0.921997,-3.504997z" fill="#4E4E4E"/>
    <path id="svg_41" d="m85.990997,80.313004l6.922005,0l0,8.643997c-1.879005,0.643997 -3.945,0.965996 -6.198006,0.965996c-2.472,0 -4.381996,-0.716995 -5.730995,-2.149994s-2.024002,-3.477005 -2.024002,-6.132004c0,-2.588997 0.738998,-4.602997 2.216003,-6.043999c1.476997,-1.440002 3.546997,-2.161003 6.208,-2.161003c1.008995,0 1.961998,0.096001 2.857994,0.285004c0.896004,0.190002 1.676003,0.431999 2.342003,0.724998l-1.371002,3.400002c-1.155998,-0.57 -2.423996,-0.855003 -3.806999,-0.855003c-1.264999,0 -2.242996,0.411003 -2.933998,1.233002c-0.691002,0.822998 -1.037003,1.999001 -1.037003,3.527c0,1.499001 0.313004,2.641998 0.938004,3.428001c0.625,0.785995 1.526001,1.179001 2.704002,1.179001c0.643997,0 1.236,-0.062004 1.776993,-0.187004l0,-2.512001l-2.862999,0l0,-3.345993z" fill="#4E4E4E"/>
   </g>
   <path id="svg_42" d="m8.91,124l6.791,0c1.607,0 3.604,-1.127998 4.431999,-2.511002l5.720001,-9.519997c0.677,-1.396004 0.653,-3.426003 -0.119001,-4.713005l-3.377998,-5.591995l-13.446001,22.335999z" fill="url(#SVGID_5_)"/>
   <path id="svg_43" d="m16.209,96.514l-15.101,25.25c-0.584,1.247002 0.023,2.236 1.521,2.236l6.281,0l13.446001,-22.334999l-6.146002,-10.173004c0.829,1.378006 0.829,3.638 -0.000999,5.022003" fill="url(#SVGID_6_)"/>
   <path id="svg_44" d="m2.629,64c-1.613,0 -2.254,1.133003 -1.424,2.511002l24.528999,40.744995c0.772001,1.288002 0.795,3.317001 0.119001,4.713005l5.962999,-9.925003l-22.902,-38.043999l-6.285,0z" fill="url(#SVGID_7_)"/>
   <path id="svg_45" d="m8.914,64l22.903,38.044998l3.321001,-5.528999c0.829998,-1.386002 0.829998,-3.645996 0,-5.023003l-15.004,-24.979996c-0.829,-1.379997 -2.826,-2.513 -4.433001,-2.513l-6.787001,0z" fill="url(#SVGID_8_)"/>
  </g>
  <g id="svg_46">
   <g id="svg_47">
    <path id="svg_48" d="m116.07,143.966995c0,2.67601 -0.730003,4.738007 -2.192001,6.186005c-1.461998,1.449005 -3.518997,2.173004 -6.166,2.173004l-5.146996,0l0,-16.036011l5.505997,0c2.555,0 4.527,0.65799 5.916,1.975998c1.389999,1.31601 2.083,3.214005 2.083,5.701004zm-4.462997,0.153c0,-1.470001 -0.289001,-2.559998 -0.865005,-3.268997c-0.576996,-0.709 -1.452995,-1.063004 -2.627998,-1.063004l-1.250999,0l0,8.981003l0.957001,0c1.306999,0 2.264999,-0.380997 2.875,-1.145996c0.608002,-0.764008 0.912003,-1.932007 0.912003,-3.503006z" fill="#E6E6E5"/>
    <path id="svg_49" d="m123.287003,152.544006c-2.053001,0 -3.646004,-0.550995 -4.782005,-1.651001c-1.135994,-1.099991 -1.703995,-2.666 -1.703995,-4.69899c0,-2.098999 0.526001,-3.709 1.577995,-4.830002c1.053001,-1.123001 2.555,-1.684006 4.505005,-1.684006c1.856995,0 3.292999,0.486008 4.306,1.462997c1.011993,0.978012 1.520004,2.383011 1.520004,4.21701l0,1.909988l-7.610008,0c0.028999,0.693008 0.280998,1.238007 0.758003,1.633011c0.475998,0.395996 1.120995,0.593002 1.941002,0.593002c0.747993,0 1.435997,-0.071014 2.061996,-0.214005c0.629997,-0.143005 1.309998,-0.38501 2.041,-0.729004l0,3.080994c-0.667999,0.344009 -1.356003,0.582001 -2.067001,0.713013c-0.711998,0.131989 -1.559998,0.196991 -2.547997,0.196991zm-0.25,-9.948013c-0.5,0 -0.920006,0.158997 -1.256004,0.479004c-0.337997,0.315994 -0.536995,0.815994 -0.594002,1.495987l3.655006,0c-0.014,-0.599991 -0.184006,-1.077988 -0.506004,-1.437988c-0.32,-0.358002 -0.753998,-0.537003 -1.298996,-0.537003z" fill="#E6E6E5"/>
    <path id="svg_50" d="m133.009003,152.324005l-4.701996,-12.428009l4.439987,0l2.090012,7.350006c0.008987,0.037003 0.021988,0.098999 0.043991,0.188004c0.020996,0.087997 0.042999,0.190994 0.064011,0.311996s0.040985,0.248993 0.060989,0.384003c0.018005,0.136002 0.027008,0.263 0.027008,0.378998l0.075989,0c0,-0.380997 0.064011,-0.794006 0.195007,-1.238998l2.188004,-7.371002l4.429993,0l-4.701004,12.428009l-4.21199,0l0,-0.003006z" fill="#E6E6E5"/>
    <path id="svg_51" d="m146.539001,152.324005l-4.234009,0l0,-16.034988l9.404007,0l0,3.478989l-5.169998,0l0,3.059998l4.768005,0l0,3.478012l-4.768005,0l0,6.01799z" fill="#E6E6E5"/>
    <path id="svg_52" d="m158.688004,152.544006c-2.055008,0 -3.647003,-0.550995 -4.783005,-1.651001c-1.136993,-1.099991 -1.703003,-2.666 -1.703003,-4.69899c0,-2.098999 0.525009,-3.709 1.578003,-4.830002c1.052002,-1.123001 2.554001,-1.684006 4.505997,-1.684006c1.85701,0 3.292007,0.486008 4.305008,1.462997c1.011993,0.978012 1.519989,2.383011 1.519989,4.21701l0,1.909988l-7.607986,0c0.028,0.693008 0.280991,1.238007 0.756989,1.633011c0.475006,0.395996 1.122009,0.593002 1.942001,0.593002c0.747009,0 1.434998,-0.071014 2.063004,-0.214005c0.626999,-0.143005 1.307007,-0.38501 2.041,-0.729004l0,3.080994c-0.669006,0.344009 -1.356995,0.582001 -2.067993,0.713013c-0.71701,0.131989 -1.564011,0.196991 -2.550003,0.196991zm-0.25,-9.948013c-0.501999,0 -0.919998,0.158997 -1.258011,0.479004c-0.337997,0.315994 -0.534988,0.815994 -0.593994,1.495987l3.656998,0c-0.014999,-0.599991 -0.184998,-1.077988 -0.507004,-1.437988c-0.321991,-0.358002 -0.755997,-0.537003 -1.297989,-0.537003z" fill="#E6E6E5"/>
    <path id="svg_53" d="m174.699005,148.507996c0,1.330002 -0.449997,2.335999 -1.349991,3.016006c-0.900009,0.681 -2.19101,1.020996 -3.875,1.020996c-0.914001,0 -1.709,-0.050003 -2.38501,-0.147995c-0.674988,-0.098007 -1.362991,-0.278 -2.065994,-0.542999l0,-3.432999c0.660004,0.291992 1.384003,0.53299 2.169998,0.723999c0.787003,0.190994 1.490005,0.284988 2.106003,0.284988c0.921005,0 1.382004,-0.21199 1.382004,-0.635986c0,-0.220001 -0.128998,-0.415009 -0.386002,-0.587006c-0.258011,-0.171997 -1.007004,-0.507004 -2.248001,-1.003998c-1.132004,-0.469009 -1.923004,-1 -2.373001,-1.596008c-0.447998,-0.597 -0.675003,-1.35199 -0.675003,-2.265991c0,-1.154007 0.440994,-2.055008 1.328003,-2.697006c0.884995,-0.645004 2.136993,-0.964996 3.755005,-0.964996c0.812988,0 1.575989,0.087997 2.291,0.268997c0.714996,0.179001 1.457001,0.440002 2.227997,0.783997l-1.154007,2.764008c-0.565002,-0.255997 -1.164001,-0.475006 -1.796997,-0.652008c-0.630997,-0.179993 -1.145996,-0.268997 -1.544998,-0.268997c-0.695999,0 -1.044998,0.171997 -1.044998,0.516006c0,0.21199 0.121002,0.393997 0.363998,0.541992c0.242996,0.150009 0.944992,0.456009 2.106003,0.916c0.862991,0.358002 1.506989,0.710007 1.931992,1.053009c0.42601,0.345001 0.736008,0.748001 0.936005,1.212997c0.201996,0.46199 0.300995,1.026993 0.300995,1.692993z" fill="#E6E6E5"/>
    <path id="svg_54" d="m181.764008,149.154007c0.572998,0 1.26001,-0.143997 2.059006,-0.427994l0,3.125c-0.572998,0.25 -1.119003,0.425995 -1.639008,0.531998c-0.519989,0.104996 -1.126999,0.158997 -1.821991,0.158997c-1.430008,0 -2.460999,-0.354004 -3.09201,-1.05899c-0.630997,-0.707001 -0.945999,-1.791 -0.945999,-3.252014l0,-5.122986l-1.490997,0l0,-1.743011l1.895004,-1.348999l1.099991,-2.610001l2.785004,0l0,2.488998l3.025009,0l0,3.213013l-3.025009,0l0,4.837997c-0.004013,0.806992 0.381989,1.207993 1.151001,1.207993z" fill="#E6E6E5"/>
   </g>
   <g id="svg_55" display="none">
    <path id="svg_56" d="m60.441002,173.886002l-10.251003,0l0,-1.841003l3.900002,-3.921005c1.151001,-1.181 1.915001,-2.016998 2.291,-2.508987c0.375999,-0.493011 0.649998,-0.957001 0.821999,-1.393005c0.172001,-0.434006 0.259003,-0.897995 0.259003,-1.395996c0,-0.682999 -0.205002,-1.222 -0.616001,-1.613007c-0.41,-0.393997 -0.978001,-0.589996 -1.702,-0.589996c-0.579002,0 -1.139999,0.106003 -1.681,0.320999c-0.542,0.214005 -1.167,0.600006 -1.877003,1.158005l-1.313999,-1.604004c0.841,-0.710007 1.659,-1.214005 2.452,-1.509995c0.792999,-0.298004 1.638,-0.445007 2.535,-0.445007c1.407001,0 2.534,0.367004 3.382,1.102997c0.848,0.734009 1.271999,1.723007 1.271999,2.962997c0,0.684006 -0.122997,1.332001 -0.366997,1.945007c-0.245003,0.613007 -0.621002,1.246002 -1.127003,1.897003s-1.349998,1.531998 -2.528999,2.643997l-2.626999,2.544998l0,0.104004l7.179001,0l-0.000999,2.141998l0,0z" fill="#E6E6E5"/>
    <path id="svg_57" d="m71.262001,166.324005c0,2.626999 -0.422005,4.578003 -1.266998,5.854004c-0.845001,1.276001 -2.136002,1.914001 -3.874001,1.914001c-1.682999,0 -2.958004,-0.658005 -3.827003,-1.975998s-1.303997,-3.248001 -1.303997,-5.793015c0,-2.668991 0.421997,-4.636002 1.267998,-5.901001c0.844002,-1.265991 2.132,-1.897995 3.863003,-1.897995c1.688995,0 2.968994,0.662003 3.837997,1.985992s1.303001,3.261002 1.303001,5.814011zm-7.810001,0c0,2.062012 0.212002,3.533005 0.635998,4.416992c0.424004,0.882996 1.102005,1.322998 2.033005,1.322998c0.931,0 1.612,-0.446991 2.042999,-1.345001c0.431,-0.895996 0.645996,-2.362 0.645996,-4.395996c0,-2.026993 -0.214996,-3.494995 -0.645996,-4.401001c-0.431,-0.906998 -1.112,-1.360001 -2.042999,-1.360001c-0.931,0 -1.608002,0.444 -2.033005,1.334c-0.422997,0.889999 -0.635998,2.365997 -0.635998,4.428009z" fill="#E6E6E5"/>
    <path id="svg_58" d="m78.971001,173.886002l-2.431,0l0,-9.766006c0,-1.164993 0.027,-2.088989 0.083,-2.770996c-0.159004,0.164001 -0.354004,0.348007 -0.584,0.546997c-0.231003,0.201004 -1.005005,0.835999 -2.322998,1.903l-1.220001,-1.541l4.447998,-3.496994l2.028,0l-0.000999,15.125l0,0z" fill="#E6E6E5"/>
    <path id="svg_59" d="m93.443001,170.585999l-2.039001,0l0,3.300003l-2.368996,0l0,-3.300003l-6.910004,0l0,-1.871994l6.910004,-9.993011l2.368996,0l0,9.848007l2.039001,0l0,2.016998zm-4.405998,-2.018005l0,-3.796997c0,-1.352005 0.034996,-2.459 0.103996,-3.319l-0.083,0c-0.193001,0.454987 -0.496002,1.006989 -0.909996,1.653l-3.755005,5.462997l4.644005,0z" fill="#E6E6E5"/>
    <path id="svg_60" d="m107.494003,169.779007c0,1.345001 -0.486,2.39801 -1.458,3.164001c-0.974007,0.766998 -2.313004,1.147995 -4.024002,1.147995c-1.709999,0 -3.109001,-0.265991 -4.198997,-0.796997l0,-2.337997c0.687996,0.324005 1.421997,0.578995 2.196999,0.766006c0.776001,0.187988 1.499001,0.278992 2.167,0.278992c0.978996,0 1.701996,-0.188004 2.167,-0.55899c0.464996,-0.373001 0.697998,-0.872009 0.697998,-1.5c0,-0.565002 -0.213997,-1.045013 -0.641998,-1.438004s-1.311005,-0.858002 -2.647003,-1.395996c-1.378998,-0.560013 -2.352997,-1.196014 -2.917,-1.914001c-0.563995,-0.71701 -0.848,-1.57901 -0.848,-2.585999c0,-1.262009 0.446999,-2.256012 1.345001,-2.979004c0.895996,-0.723999 2.100998,-1.085999 3.610001,-1.085999c1.446999,0 2.889999,0.317001 4.323997,0.951996l-0.786995,2.018005c-1.345001,-0.565002 -2.545006,-0.848999 -3.600006,-0.848999c-0.799995,0 -1.405998,0.173996 -1.82,0.520996c-0.413994,0.349991 -0.620995,0.811005 -0.620995,1.382996c0,0.393005 0.084,0.729004 0.247993,1.007996c0.166,0.279007 0.438004,0.542999 0.817001,0.792007c0.379005,0.248001 1.062004,0.574997 2.048004,0.981003c1.110001,0.462997 1.923996,0.894989 2.440994,1.292999c0.517006,0.399994 0.896004,0.852997 1.138,1.354996c0.242004,0.505997 0.363007,1.100998 0.363007,1.781998z" fill="#E6E6E5"/>
    <path id="svg_61" d="m113.889,174.093002c-1.778999,0 -3.171997,-0.518997 -4.175003,-1.557007s-1.504997,-2.468002 -1.504997,-4.287994c0,-1.869003 0.465004,-3.337997 1.396004,-4.406998c0.931,-1.067001 2.209,-1.602997 3.837997,-1.602997c1.510002,0 2.703003,0.457001 3.578003,1.375s1.312996,2.179993 1.312996,3.784988l0,1.314011l-7.624001,0c0.034004,1.110001 0.334,1.963989 0.900002,2.560989c0.564003,0.597 1.361,0.896011 2.389999,0.896011c0.677002,0 1.306,-0.063004 1.888,-0.190002c0.584,-0.128998 1.209,-0.339996 1.876999,-0.638l0,1.975998c-0.593002,0.283005 -1.192001,0.483002 -1.800003,0.602005c-0.605995,0.116989 -1.297997,0.173996 -2.075996,0.173996zm-0.445999,-10.014008c-0.772003,0 -1.392998,0.244995 -1.857002,0.733002c-0.464996,0.48999 -0.742996,1.204987 -0.833,2.14299l5.192001,0c-0.014,-0.944992 -0.240997,-1.660004 -0.681999,-2.145981c-0.441002,-0.486008 -1.048004,-0.730011 -1.82,-0.730011z" fill="#E6E6E5"/>
    <path id="svg_62" d="m126.984001,173.886002l-0.486,-1.593002l-0.082001,0c-0.553001,0.695999 -1.107002,1.171005 -1.666,1.421997c-0.558998,0.251999 -1.275002,0.378006 -2.152,0.378006c-1.123001,0 -2,-0.304001 -2.630997,-0.908997c-0.633003,-0.60701 -0.947006,-1.46701 -0.947006,-2.576004c0,-1.180008 0.438004,-2.068008 1.314003,-2.669998c0.875,-0.600006 2.209,-0.928009 4.001999,-0.981003l1.977005,-0.063004l0,-0.608994c0,-0.730011 -0.172005,-1.277008 -0.512001,-1.641006c-0.342003,-0.360001 -0.871002,-0.542999 -1.588005,-0.542999c-0.585999,0 -1.147995,0.087997 -1.687996,0.259995c-0.537003,0.173004 -1.055,0.375 -1.551003,0.609009l-0.787003,-1.736008c0.621002,-0.32399 1.301003,-0.570999 2.039001,-0.73999c0.737,-0.169006 1.434006,-0.253006 2.090004,-0.253006c1.455002,0 2.553001,0.317001 3.294998,0.949997c0.739998,0.636002 1.111,1.631012 1.111,2.988998l0,7.707001l-1.737999,0l0,-0.000992zm-3.621002,-1.656006c0.883003,0 1.592003,-0.246002 2.126999,-0.738998c0.533005,-0.492996 0.801003,-1.184998 0.801003,-2.07399l0,-0.993011l-1.469002,0.061996c-1.145996,0.041 -1.976997,0.23201 -2.498001,0.574005s-0.780998,0.863007 -0.780998,1.56601c0,0.511993 0.152,0.904999 0.455002,1.185989c0.305,0.279007 0.760002,0.417999 1.364998,0.417999z" fill="#E6E6E5"/>
    <path id="svg_63" d="m138.529007,170.626999c0,1.117004 -0.405991,1.975006 -1.220993,2.570999c-0.811996,0.596008 -1.979004,0.895004 -3.496002,0.895004c-1.522995,0 -2.748001,-0.231003 -3.671997,-0.692001l0,-2.100998c1.343994,0.619995 2.595993,0.931 3.753998,0.931c1.498001,0 2.246002,-0.449997 2.246002,-1.354004c0,-0.289993 -0.084,-0.531006 -0.248001,-0.725006c-0.166,-0.192993 -0.438004,-0.393997 -0.817001,-0.600998c-0.380005,-0.207001 -0.906998,-0.440002 -1.583008,-0.703995c-1.317001,-0.509995 -2.207993,-1.020996 -2.673996,-1.529007c-0.466995,-0.511993 -0.697998,-1.173996 -0.697998,-1.985992c0,-0.979004 0.395996,-1.738998 1.184998,-2.281006c0.789001,-0.541 1.863007,-0.811996 3.223007,-0.811996c1.345993,0 2.616989,0.270996 3.815994,0.815002l-0.785004,1.830994c-1.233994,-0.509995 -2.272003,-0.765991 -3.112991,-0.765991c-1.283005,0 -1.924011,0.365997 -1.924011,1.097c0,0.358994 0.166,0.662003 0.5,0.910004c0.336014,0.248993 1.064011,0.589996 2.188004,1.022995c0.944,0.367004 1.630997,0.701004 2.059998,1.003998c0.42601,0.304001 0.744003,0.654007 0.951004,1.050995s0.307999,0.871002 0.307999,1.423004z" fill="#E6E6E5"/>
    <path id="svg_64" d="m150.033997,168.145004c0,1.869003 -0.479004,3.328003 -1.438004,4.376999c-0.959,1.046997 -2.292999,1.570999 -4.003998,1.570999c-1.067993,0 -2.013992,-0.240997 -2.834,-0.725006c-0.819992,-0.481995 -1.450989,-1.177002 -1.894989,-2.078995c-0.44101,-0.903 -0.661011,-1.951004 -0.661011,-3.145004c0,-1.854996 0.477997,-3.304001 1.428009,-4.345993c0.951996,-1.041 2.292999,-1.562012 4.024002,-1.562012c1.653992,0 2.964996,0.533005 3.931,1.599014s1.44899,2.502991 1.44899,4.309998zm-8.326996,0c0,2.64299 0.977005,3.962997 2.927994,3.962997c1.932007,0 2.896011,-1.320007 2.896011,-3.962997c0,-2.612 -0.973007,-3.919998 -2.917999,-3.919998c-1.021011,0 -1.76001,0.337997 -2.219009,1.014999c-0.455994,0.673996 -0.686996,1.64299 -0.686996,2.904999z" fill="#E6E6E5"/>
    <path id="svg_65" d="m161.621002,173.886002l-2.44101,0l0,-7.033997c0,-0.883011 -0.177994,-1.541 -0.530991,-1.975998c-0.354996,-0.435013 -0.919998,-0.651001 -1.69101,-0.651001c-1.026993,0 -1.778992,0.302994 -2.25499,0.909988c-0.477997,0.606003 -0.714005,1.624008 -0.714005,3.05101l0,5.699997l-2.431992,0l0,-11.440002l1.903,0l0.340988,1.5l0.124008,0c0.345001,-0.544998 0.834991,-0.964996 1.470001,-1.261993s1.337997,-0.444 2.108994,-0.444c2.744995,0 4.117004,1.395996 4.117004,4.187988l0,7.458008z" fill="#E6E6E5"/>
   </g>
   <g id="svg_66">
    <path id="svg_67" d="m55.729,143.311996l6.922001,0l0,8.645004c-1.879002,0.645004 -3.945,0.966003 -6.198002,0.966003c-2.472,0 -4.382,-0.71701 -5.730999,-2.149002c-1.348999,-1.434006 -2.023998,-3.479004 -2.023998,-6.132996c0,-2.589005 0.738998,-4.604004 2.216,-6.042999c1.476997,-1.440002 3.546997,-2.162003 6.208,-2.162003c1.008999,0 1.961998,0.097 2.857998,0.284988c0.896,0.190002 1.675999,0.432007 2.341999,0.726013l-1.370998,3.398987c-1.156002,-0.569992 -2.424,-0.853989 -3.806999,-0.853989c-1.264999,0 -2.243,0.410995 -2.934002,1.233002s-1.036999,1.998001 -1.036999,3.524994c0,1.5 0.313,2.643005 0.938,3.429993c0.625,0.785004 1.526001,1.178009 2.703999,1.178009c0.644001,0 1.236,-0.061996 1.777,-0.186996l0,-2.512009l-2.862999,0l0,-3.347z" fill="#E6E6E5"/>
    <path id="svg_68" d="m78.184998,144.345001c0,2.677002 -0.737,4.737991 -2.209999,6.188004c-1.473,1.447998 -3.544998,2.171997 -6.213997,2.171997l-5.188004,0l0,-16.037003l5.551003,0c2.573997,0 4.560997,0.658005 5.960999,1.975998c1.400002,1.315002 2.099998,3.212997 2.099998,5.701004zm-4.496994,0.153c0,-1.471008 -0.291,-2.561005 -0.872002,-3.270004s-1.464005,-1.063004 -2.649002,-1.063004l-1.262001,0l0,8.983002l0.965004,0c1.315994,0 2.281998,-0.382996 2.895996,-1.145996c0.613998,-0.763992 0.922005,-1.931992 0.922005,-3.503998z" fill="#E6E6E5"/>
    <path id="svg_69" d="m86.150002,143.311996l6.921997,0l0,8.645004c-1.878998,0.645004 -3.945,0.966003 -6.197998,0.966003c-2.472,0 -4.382004,-0.71701 -5.731003,-2.149002c-1.348999,-1.434006 -2.023994,-3.479004 -2.023994,-6.132996c0,-2.589005 0.738998,-4.604004 2.215996,-6.042999c1.476997,-1.440002 3.547005,-2.162003 6.208,-2.162003c1.009003,0 1.961998,0.097 2.858002,0.284988c0.895996,0.190002 1.676003,0.432007 2.341995,0.726013l-1.370995,3.398987c-1.155998,-0.569992 -2.424004,-0.853989 -3.806999,-0.853989c-1.264999,0 -2.243004,0.410995 -2.934006,1.233002s-1.036995,1.998001 -1.036995,3.524994c0,1.5 0.312996,2.643005 0.937996,3.429993c0.625,0.785004 1.526001,1.178009 2.704002,1.178009c0.643997,0 1.236,-0.061996 1.777,-0.186996l0,-2.512009l-2.862999,0l0,-3.347z" fill="#E6E6E5"/>
   </g>
   <path id="svg_70" d="m9.068,187l6.791,0c1.606999,0 3.603999,-1.128006 4.432,-2.511002l5.719999,-9.520004c0.677,-1.395996 0.653,-3.425995 -0.118999,-4.712997l-3.378,-5.591995l-13.446,22.335999z" fill="url(#SVGID_9_)"/>
   <path id="svg_71" d="m16.368,159.514008l-15.102,25.25c-0.583,1.246994 0.023,2.235992 1.521,2.235992l6.281,0l13.446,-22.335007l-6.146,-10.172989c0.829,1.377991 0.829,3.638 0,5.022003" fill="url(#SVGID_10_)"/>
   <path id="svg_72" d="m2.787,127c-1.613,0 -2.254,1.132996 -1.424,2.511002l24.529,40.744995c0.771999,1.28801 0.795,3.317001 0.118999,4.712997l5.963001,-9.924988l-22.902001,-38.044006l-6.285,0z" fill="url(#SVGID_11_)"/>
   <path id="svg_73" d="m9.072,127l22.903001,38.044998l3.321001,-5.528992c0.829998,-1.386002 0.829998,-3.646011 0,-5.02301l-15.004002,-24.981003c-0.829,-1.378998 -2.825001,-2.511993 -4.432,-2.511993l-6.788,0z" fill="url(#SVGID_12_)"/>
  </g>
  <text id="svg_74" font-size="22" font-family="'MyriadPro-Semibold'" fill="#4E4E4E" transform="matrix(1,0,0,1,48.6509,49.4126) ">2015 Trabzon</text>
  <text id="svg_75" font-size="22" font-family="'MyriadPro-Semibold'" fill="#4E4E4E" transform="matrix(1,0,0,1,49.333,110.3867) ">2015 Trabzon</text>
  <text id="svg_76" font-size="22" font-family="'MyriadPro-Semibold'" fill="#e6e6e5" transform="matrix(1,0,0,1,49.3545,173.5713) ">2015 Trabzon</text>
 </g>
</svg>