<svg xmlns="http://www.w3.org/2000/svg" width="185" height="188">
 <metadata id="metadata3407">image/svg+xml</metadata>
 <defs>
  <radialGradient gradientUnits="userSpaceOnUse" gradientTransform="matrix(.498 0 0 .498 150.953 101.325)" r="20.114" cy="-103.403" cx="-267.421" id="a">
   <stop id="stop3296" stop-color="#FFCF4F" offset="0"/>
   <stop id="stop3298" stop-color="#F4C236" offset="1"/>
  </radialGradient>
  <radialGradient gradientUnits="userSpaceOnUse" gradientTransform="matrix(.498 0 0 .498 150.953 101.325)" r="27.658" cy="-113.618" cx="-279.473" id="b">
   <stop id="stop3303" stop-color="#08A960" offset="0"/>
   <stop id="stop3305" stop-color="#07914B" offset="1"/>
  </radialGradient>
  <radialGradient gradientUnits="userSpaceOnUse" gradientTransform="matrix(.498 0 0 .498 150.953 101.325)" r="40.54" cy="-153.299" cx="-270.021" id="c">
   <stop id="stop3310" stop-color="#567FC0" offset="0"/>
   <stop id="stop3312" stop-color="#557FC0" offset="1"/>
  </radialGradient>
  <radialGradient gradientUnits="userSpaceOnUse" gradientTransform="matrix(.498 0 0 .498 150.953 101.325)" r="33.058" cy="-163.264" cx="-257.957" id="d">
   <stop id="stop3317" stop-color="#E14C40" offset="0"/>
   <stop id="stop3319" stop-color="#CD392D" offset="1"/>
  </radialGradient>
  <radialGradient gradientUnits="userSpaceOnUse" gradientTransform="matrix(.498 0 0 .498 150.953 101.325)" r="20.114" cy="23.107" cx="-267.421" id="e">
   <stop id="stop3336" stop-color="#ccc" offset="0"/>
   <stop id="stop3338" stop-color="#C0C0C0" offset="1"/>
  </radialGradient>
  <radialGradient gradientUnits="userSpaceOnUse" gradientTransform="matrix(.498 0 0 .498 150.953 101.325)" r="27.658" cy="12.893" cx="-279.473" id="f">
   <stop id="stop3343" stop-color="#A0A0A0" offset="0"/>
   <stop id="stop3345" stop-color="#7B7B7B" offset="1"/>
  </radialGradient>
  <radialGradient gradientUnits="userSpaceOnUse" gradientTransform="matrix(.498 0 0 .498 150.953 101.325)" r="40.54" cy="-26.789" cx="-270.021" id="g">
   <stop id="stop3350" stop-color="#848484" offset="0"/>
   <stop id="stop3352" stop-color="#838383" offset="1"/>
  </radialGradient>
  <radialGradient gradientUnits="userSpaceOnUse" gradientTransform="matrix(.498 0 0 .498 150.953 101.325)" r="33.058" cy="-36.754" cx="-257.957" id="h">
   <stop id="stop3357" stop-color="#626262" offset="0"/>
   <stop id="stop3359" stop-color="#474747" offset="1"/>
  </radialGradient>
  <radialGradient gradientUnits="userSpaceOnUse" gradientTransform="matrix(.498 0 0 .498 150.953 101.325)" r="20.114" cy="149.617" cx="-267.421" id="i">
   <stop id="stop3376" stop-color="#FFCF4F" offset="0"/>
   <stop id="stop3378" stop-color="#F4C236" offset="1"/>
  </radialGradient>
  <radialGradient gradientUnits="userSpaceOnUse" gradientTransform="matrix(.498 0 0 .498 150.953 101.325)" r="27.658" cy="139.403" cx="-279.473" id="j">
   <stop id="stop3383" stop-color="#08A960" offset="0"/>
   <stop id="stop3385" stop-color="#07914B" offset="1"/>
  </radialGradient>
  <radialGradient gradientUnits="userSpaceOnUse" gradientTransform="matrix(.498 0 0 .498 150.953 101.325)" r="40.54" cy="99.721" cx="-270.021" id="k">
   <stop id="stop3390" stop-color="#567FC0" offset="0"/>
   <stop id="stop3392" stop-color="#557FC0" offset="1"/>
  </radialGradient>
  <radialGradient gradientUnits="userSpaceOnUse" gradientTransform="matrix(.498 0 0 .498 150.953 101.325)" r="33.058" cy="89.756" cx="-257.957" id="l">
   <stop id="stop3397" stop-color="#E14C40" offset="0"/>
   <stop id="stop3399" stop-color="#CD392D" offset="1"/>
  </radialGradient>
 </defs>
 <g>
  <title>background</title>
  <rect x="-1" y="-1" width="187" height="190" id="canvas_background" fill="none"/>
 </g>
 <g>
  <title>Layer 1</title>
  <g id="g3291" fill="#4E4E4E">
   <path id="path3293" d="m55.729,17.313l6.921001,0l0,8.643c-1.880001,0.644001 -3.945,0.966002 -6.197002,0.966002c-2.472,0 -4.382999,-0.717001 -5.730999,-2.151001c-1.348999,-1.433001 -2.023998,-3.476999 -2.023998,-6.131001c0,-2.588999 0.738998,-4.603 2.216,-6.044c1.477997,-1.44 3.546997,-2.160999 6.209,-2.160999c1.008999,0 1.960999,0.094999 2.856998,0.285c0.895,0.19 1.675999,0.432 2.341999,0.724l-1.370998,3.4c-1.154999,-0.57 -2.424,-0.855 -3.806,-0.855c-1.264999,0 -2.243,0.410999 -2.934002,1.233999c-0.690998,0.822001 -1.036999,1.998001 -1.036999,3.527c0,1.499001 0.313,2.641001 0.938,3.427999c0.625,0.786001 1.526001,1.179001 2.704002,1.179001c0.643997,0 1.235996,-0.062 1.776997,-0.187l0,-2.511999l-2.862999,0l0,-3.345001l-0.000999,0zm22.454998,1.031c0,2.677 -0.737,4.739 -2.209999,6.187c-1.473999,1.447001 -3.544998,2.171999 -6.214996,2.171999l-5.188004,0l0,-16.037999l5.551003,0c2.573997,0 4.560997,0.658 5.960999,1.975c1.401001,1.316999 2.100998,3.217999 2.100998,5.704zm-4.497002,0.153999c0,-1.469999 -0.290993,-2.559999 -0.871994,-3.268c-0.581001,-0.709999 -1.464005,-1.065 -2.649002,-1.065l-1.262001,0l0,8.984l0.965004,0c1.316994,0 2.280998,-0.382 2.895996,-1.146s0.921997,-1.933001 0.921997,-3.505001zm12.463005,-1.184999l6.920998,0l0,8.643c-1.879997,0.644001 -3.945,0.966002 -6.196999,0.966002c-2.472,0 -4.383003,-0.717001 -5.731003,-2.151001c-1.348999,-1.433001 -2.023994,-3.476999 -2.023994,-6.131001c0,-2.588999 0.738998,-4.603 2.215996,-6.044c1.478004,-1.44 3.547005,-2.160999 6.209,-2.160999c1.009003,0 1.960999,0.094999 2.857002,0.285c0.894997,0.19 1.676003,0.432 2.341995,0.724l-1.370995,3.4c-1.154999,-0.57 -2.424004,-0.855 -3.806,-0.855c-1.264999,0 -2.243004,0.410999 -2.933998,1.233999c-0.691002,0.822001 -1.037003,1.998001 -1.037003,3.527c0,1.499001 0.312996,2.641001 0.937996,3.427999c0.625,0.786001 1.526001,1.179001 2.704002,1.179001c0.643997,0 1.236,-0.062 1.777,-0.187l0,-2.511999l-2.863998,0l0,-3.345001l0,0z"/>
   <path id="svg_3"/>
  </g>
  <path id="path3300" d="m9.068,61l6.791,0c1.606999,0 3.603999,-1.127998 4.432,-2.511002l5.719999,-9.518997c0.677,-1.396 0.653,-3.426003 -0.118999,-4.713001l-3.378,-5.591999l-13.446,22.334999z" fill="url(#a)"/>
  <path id="path3307" d="m16.368,33.514l-15.102,25.249001c-0.583,1.248001 0.023,2.237 1.521,2.237l6.281,0l13.446,-22.334999l-6.146,-10.173c0.829,1.378 0.829,3.638 0,5.021999" fill="url(#b)"/>
  <path id="path3314" d="m2.787,1c-1.613,0 -2.253,1.133 -1.424,2.511l24.529,40.745001c0.771999,1.287998 0.795,3.317001 0.118999,4.713001l5.963001,-9.925003l-22.902001,-38.043999l-6.285,0l0,0z" fill="url(#c)"/>
  <path id="path3321" d="m9.072,1l22.903001,38.044998l3.321001,-5.529999c0.829998,-1.384998 0.829998,-3.644999 0,-5.022999l-15.004002,-24.981001c-0.829,-1.378 -2.825001,-2.511 -4.432,-2.511l-6.788,0l0,0z" fill="url(#d)"/>
  <g id="g3331" fill="#4E4E4E">
   <path id="path3333" d="m55.729,80.313004l6.921001,0l0,8.642998c-1.880001,0.643997 -3.945,0.965996 -6.197002,0.965996c-2.472,0 -4.382999,-0.716995 -5.730999,-2.150993c-1.348999,-1.433006 -2.023998,-3.477005 -2.023998,-6.131004c0,-2.588997 0.738998,-4.602997 2.216,-6.043999c1.477997,-1.440002 3.546997,-2.161003 6.209,-2.161003c1.008999,0 1.960999,0.095001 2.856998,0.285004c0.895,0.190002 1.675999,0.431999 2.341999,0.723999l-1.370998,3.400002c-1.154999,-0.57 -2.424,-0.855003 -3.806,-0.855003c-1.264999,0 -2.243,0.411003 -2.934002,1.234001c-0.690998,0.821999 -1.036999,1.998001 -1.036999,3.527c0,1.499001 0.313,2.640999 0.938,3.428001c0.625,0.785995 1.526001,1.179001 2.704002,1.179001c0.643997,0 1.235996,-0.062004 1.776997,-0.187004l0,-2.512001l-2.862999,0l0,-3.344994l-0.000999,0zm22.454998,1.030998c0,2.677002 -0.737,4.738998 -2.209999,6.186996c-1.473999,1.446999 -3.544998,2.172005 -6.214996,2.172005l-5.188004,0l0,-16.038002l5.551003,0c2.573997,0 4.560997,0.657997 5.960999,1.974998c1.401001,1.317001 2.100998,3.218002 2.100998,5.704002zm-4.497002,0.153999c0,-1.470001 -0.290993,-2.559998 -0.871994,-3.267998c-0.581001,-0.710007 -1.464005,-1.065002 -2.649002,-1.065002l-1.262001,0l0,8.984001l0.965004,0c1.316994,0 2.280998,-0.382004 2.895996,-1.146004s0.921997,-1.932999 0.921997,-3.504997zm12.463005,-1.184998l6.920998,0l0,8.642998c-1.879997,0.643997 -3.945,0.965996 -6.196999,0.965996c-2.472,0 -4.383003,-0.716995 -5.731003,-2.150993c-1.348999,-1.433006 -2.023994,-3.477005 -2.023994,-6.131004c0,-2.588997 0.738998,-4.602997 2.215996,-6.043999c1.478004,-1.440002 3.547005,-2.161003 6.209,-2.161003c1.009003,0 1.960999,0.095001 2.857002,0.285004c0.894997,0.190002 1.676003,0.431999 2.341995,0.723999l-1.370995,3.400002c-1.154999,-0.57 -2.424004,-0.855003 -3.806,-0.855003c-1.264999,0 -2.243004,0.411003 -2.933998,1.234001c-0.691002,0.821999 -1.037003,1.998001 -1.037003,3.527c0,1.499001 0.312996,2.640999 0.937996,3.428001c0.625,0.785995 1.526001,1.179001 2.704002,1.179001c0.643997,0 1.236,-0.062004 1.777,-0.187004l0,-2.512001l-2.863998,0l0,-3.344994l0,0z"/>
  </g>
  <path id="path3340" d="m9.068,124l6.791,0c1.606999,0 3.603999,-1.127998 4.432,-2.511002l5.719999,-9.518997c0.677,-1.396004 0.653,-3.426003 -0.118999,-4.712997l-3.378,-5.592003l-13.446,22.334999z" fill="url(#e)"/>
  <path id="path3347" d="m16.368,96.514l-15.102,25.249001c-0.583,1.248001 0.023,2.237 1.521,2.237l6.281,0l13.446,-22.334999l-6.146,-10.173004c0.829,1.378006 0.829,3.638 0,5.022003" fill="url(#f)"/>
  <path id="path3354" d="m2.787,64c-1.613,0 -2.254,1.133003 -1.424,2.511002l24.529,40.744995c0.771999,1.288002 0.795,3.317001 0.118999,4.713005l5.963001,-9.925003l-22.902001,-38.043999l-6.285,0l0,0z" fill="url(#g)"/>
  <path id="path3361" d="m9.072,64l22.903001,38.044998l3.321001,-5.529999c0.829998,-1.385002 0.829998,-3.644997 0,-5.023003l-15.004002,-24.979996c-0.829,-1.378998 -2.825001,-2.512001 -4.432,-2.512001l-6.788,0l0,0z" fill="url(#h)"/>
  <g id="g3363" fill="#E6E6E5"/>
  <g id="g3371" fill="#E6E6E5">
   <path id="path3373" d="m55.729,143.313004l6.921001,0l0,8.64299c-1.880001,0.645004 -3.945,0.96701 -6.197002,0.96701c-2.472,0 -4.382999,-0.718002 -5.730999,-2.151001c-1.348999,-1.432007 -2.023998,-3.477005 -2.023998,-6.130005c0,-2.589005 0.738998,-4.602997 2.216,-6.043991c1.477997,-1.44101 3.546997,-2.161011 6.209,-2.161011c1.008999,0 1.960999,0.095001 2.856998,0.283997c0.895,0.190002 1.675999,0.432007 2.341999,0.725006l-1.370998,3.399994c-1.154999,-0.570999 -2.424,-0.854996 -3.806,-0.854996c-1.264999,0 -2.243,0.410004 -2.934002,1.234009c-0.690998,0.821991 -1.036999,1.998001 -1.036999,3.526993c0,1.498001 0.313,2.639999 0.938,3.427994c0.625,0.786011 1.526001,1.179001 2.704002,1.179001c0.643997,0 1.235996,-0.061996 1.776997,-0.186996l0,-2.511993l-2.862999,0l0,-3.347l-0.000999,0zm22.454998,1.030991c0,2.677002 -0.737,4.738998 -2.209999,6.187012c-1.473999,1.446991 -3.544998,2.171997 -6.214996,2.171997l-5.188004,0l0,-16.03801l5.551003,0c2.573997,0 4.560997,0.659012 5.960999,1.976013c1.401001,1.315994 2.100998,3.215988 2.100998,5.702988zm-4.497002,0.154007c0,-1.470001 -0.290993,-2.559998 -0.871994,-3.268005c-0.581001,-0.709991 -1.464005,-1.065994 -2.649002,-1.065994l-1.262001,0l0,8.985001l0.965004,0c1.316994,0 2.280998,-0.382996 2.895996,-1.145996c0.614998,-0.766006 0.921997,-1.934006 0.921997,-3.505005zm12.463005,-1.184998l6.920998,0l0,8.64299c-1.879997,0.645004 -3.945,0.96701 -6.196999,0.96701c-2.472,0 -4.383003,-0.718002 -5.731003,-2.151001c-1.348999,-1.432007 -2.023994,-3.477005 -2.023994,-6.130005c0,-2.589005 0.738998,-4.602997 2.215996,-6.043991c1.478004,-1.44101 3.547005,-2.161011 6.209,-2.161011c1.009003,0 1.960999,0.095001 2.857002,0.283997c0.894997,0.190002 1.676003,0.432007 2.341995,0.725006l-1.370995,3.399994c-1.154999,-0.570999 -2.424004,-0.854996 -3.806,-0.854996c-1.264999,0 -2.243004,0.410004 -2.933998,1.234009c-0.691002,0.821991 -1.037003,1.998001 -1.037003,3.526993c0,1.498001 0.312996,2.639999 0.937996,3.427994c0.625,0.786011 1.526001,1.179001 2.704002,1.179001c0.643997,0 1.236,-0.061996 1.777,-0.186996l0,-2.511993l-2.863998,0l0,-3.347l0,0z"/>
  </g>
  <path id="path3380" d="m9.068,187l6.791,0c1.606999,0 3.603999,-1.128006 4.432,-2.511002l5.719999,-9.518997c0.677,-1.395996 0.653,-3.425995 -0.118999,-4.712997l-3.378,-5.59201l-13.446,22.335007z" fill="url(#i)"/>
  <path id="path3387" d="m16.368,159.514008l-15.102,25.249008c-0.583,1.248001 0.023,2.237 1.521,2.237l6.281,0l13.446,-22.335007l-6.146,-10.173004c0.829,1.378006 0.829,3.638 0,5.022003" fill="url(#j)"/>
  <path id="path3394" d="m2.787,127c-1.613,0 -2.254,1.132996 -1.424,2.511002l24.529,40.744995c0.771999,1.28801 0.795,3.317001 0.118999,4.712997l5.963001,-9.924988l-22.902001,-38.044006l-6.285,0l0,0z" fill="url(#k)"/>
  <path id="path3401" d="m9.072,127l22.903001,38.044998l3.321001,-5.529999c0.829998,-1.384995 0.829998,-3.645004 0,-5.022995l-15.004002,-24.981003c-0.829,-1.378006 -2.825001,-2.511002 -4.432,-2.511002l-6.788,0l0,0z" fill="url(#l)"/>
  <text style="cursor: move;" font-size="18px" font-style="normal" font-weight="bold" fill="#000000" font-family="Open Sans" id="text3409" y="46.705635" x="48.66806" xml:space="preserve">2015 Trabzon</text>
  <text style="cursor: move;" font-size="18px" font-style="normal" font-weight="bold" fill="#4e4e4e" font-family="Open Sans" id="text4204" y="107.9332" x="50.237995" xml:space="preserve">2015 Trabzon</text>
  <text style="cursor: text;" font-size="18px" font-style="normal" font-weight="bold" fill="#DDDDDD" font-family="Open Sans" id="text4208" y="173.0856" x="49.453026" xml:space="preserve" stroke="null" stroke-width="null">2015 Trabzon</text>
  <text fill="#444444" stroke="null" stroke-width="null" stroke-opacity="null" x="98" y="25" id="svg_4" font-size="21" font-family="'Times New Roman', Times, serif" text-anchor="left" xml:space="preserve" font-weight="bold" font-style="normal">Devfest</text>
  <text fill="#444444" stroke="null" stroke-width="null" stroke-opacity="null" x="98" y="88" id="svg_5" font-size="21" font-family="'Times New Roman', Times, serif" text-anchor="left" xml:space="preserve" font-weight="bold" font-style="normal">Devfest</text>
  <text fill="#DDDDDD" stroke="null" stroke-width="null" stroke-opacity="null" x="97" y="152" id="svg_6" font-size="21" font-family="'Times New Roman', Times, serif" text-anchor="left" xml:space="preserve" font-weight="bold" font-style="normal">Devfest</text>
 </g>
</svg>